<svg xmlns="http://www.w3.org/2000/svg" width="2048" height="2048" fill-rule="evenodd" clip-rule="evenodd" image-rendering="optimizeQuality" shape-rendering="geometricPrecision" text-rendering="geometricPrecision"><path fill="#00ffc9" d="M615.5 222.5c1.333.667 1.333.667 0 0zm0 1a513.789 513.789 0 0 0-15.5 12c-6.987 12.326-16.154 22.826-27.5 31.5l-26 17a11283.578 11283.578 0 0 1-30 29l-29 21-20 10a158.709 158.709 0 0 0-15.5 14.5 939.76 939.76 0 0 1-37 61 1188.192 1188.192 0 0 1-57 59 395.945 395.945 0 0 0-42 57 564.034 564.034 0 0 0-37 43 62.744 62.744 0 0 0-8 7 677.517 677.517 0 0 0-42 97c-18.888 38.129-49.555 59.795-92 65l-2.5-1c10.7-16.405 16.533-34.405 17.5-54 .055-34.021-.612-68.021-2-102 14.828-21.782 25.828-45.449 33-71a3.647 3.647 0 0 1 1.5-1c40.626 18.238 79.292 14.738 116-10.5 19.715-16.063 33.548-36.229 41.5-60.5l57.5-53.5a732.113 732.113 0 0 0 29-22 426.246 426.246 0 0 1 24-25 357.236 357.236 0 0 0 23-22 330.618 330.618 0 0 0 39-36c18.841-12.579 35.841-27.246 51-44a222.537 222.537 0 0 0 21-14 203.269 203.269 0 0 0 29-7.5z" opacity=".008"/><path fill="#62af00" d="M888.5 260.5c3.851-1.309 7.851-1.309 12 0a6.201 6.201 0 0 1-3.5 2 212.703 212.703 0 0 1-8.5-2z" opacity=".012"/><path fill="#de4609" d="M867.5 266.5v1a243.066 243.066 0 0 0-30 1v-2c9.84-.146 19.84-.146 30 0z" opacity=".118"/><path d="M867.5 267.5a535.303 535.303 0 0 1 56 7h2c2.589 1.657 5.256 1.991 8 1h2v1c.705 1.297 2.372 1.964 5 2h2c2.015 1.424 4.348 2.09 7 2 3.662.223 6.995 1.223 10 3s6.338 2.777 10 3c4.022 2.234 8.356 3.901 13 5 1.291-.237 2.291.096 3 1a100.911 100.911 0 0 0 15 6h2c1.28 2.23 3.28 3.563 6 4h1c2.35 1.841 5.02 3.174 8 4 2.47.154 4.47 1.154 6 3 1.68 1.508 3.68 2.508 6 3 3.5 2.25 7.17 4.25 11 6h1c3.37 4.134 7.7 6.801 13 8 .47 1.406 1.47 2.073 3 2l4 1c1.18 1.567 2.85 2.401 5 2.5 1.32.816 1.99 1.983 2 3.5 1.8 2.4 4.13 4.067 7 5 5.33 2.339 10 5.672 14 10 1.41 2.414 3.41 4.081 6 5 2.61.943 4.61 2.61 6 5a57.656 57.656 0 0 0 10 8c1.69 1.364 3.36 2.697 5 4-.44-.065-.77.101-1 .5a1252.727 1252.727 0 0 0 30 29.5c.09.996-.25 1.829-1 2.5l3 1a245.51 245.51 0 0 1 13 13.5c.67.333 1.33.667 2 1 .39 1.784 1.06 3.45 2 5a21.588 21.588 0 0 0 4 5c.67 0 1 .333 1 1-.44-.065-.77.101-1 .5 2.8 3.145 5.47 6.312 8 9.5.67 0 1 .333 1 1 .34 2.698 1.68 4.698 4 6 1.14 2.28 2.31 4.614 3.5 7 .67.752 1.5 1.086 2.5 1 .06 1.109.39 2.109 1 3 .43 1.21 1.1 2.21 2 3 2.67 1.989 4.33 4.656 5 8-.54.06-.88.393-1 1 2.09 3.061 4.09 6.061 6 9 .92-.803 1.92-.97 3-.5a55.143 55.143 0 0 0-1 4.5c.49 2.319 1.49 4.319 3 6 1.83 4.984 4.16 9.651 7 14 .77 3.649 2.1 6.982 4 10 2.16 6.496 4.5 12.83 7 19 2.53 4.581 4.2 9.581 5 15 .73 4.945 2.07 9.612 4 14 .7 6.261 2.04 12.261 4 18 .15 3.887.81 7.554 2 11a111.567 111.567 0 0 1 3 16c-.65.949-.99 2.115-1 3.5.11 1.681.77 2.848 2 3.5.73 1.75 1.07 3.417 1 5-1.84.139-2.17.806-1 2a235.521 235.521 0 0 0 16 6c1.68 1.508 3.68 2.508 6 3 2.59 2.092 5.59 3.425 9 4 1.65.16 2.99.826 4 2a67.648 67.648 0 0 0 12 6c1.88-.271 3.21.396 4 2 1.68 1.508 3.68 2.508 6 3a1318.073 1318.073 0 0 1 52 32c3.01.081 5.01 1.414 6 4a67.324 67.324 0 0 0 7 5c3.37 2.017 6.71 4.017 10 6a2.424 2.424 0 0 0-2 .5 374.205 374.205 0 0 0 19 14.5h1c2.35 3.351 5.35 6.018 9 8 2.97.967 4.97 2.967 6 6 .76 1.762 2.1 2.762 4 3 1.33 1 2.67 2 4 3a10.26 10.26 0 0 0 3 3c-.13.739.04 1.406.5 2a30.406 30.406 0 0 0 8.5 7c.26 2.064 1.43 3.397 3.5 4 .33 1.333.67 2.667 1 4 2.96.526 5.46 1.859 7.5 4 2 0 3 1 3 3a310.194 310.194 0 0 0 20 22c2.6 3.938 5.6 7.605 9 11h1c.21 1.422.71 2.755 1.5 4a58.772 58.772 0 0 0 7.5 8c4 5.342 8 10.675 12 16 .62 2.254 1.96 3.921 4 5 1.47.936 2.47 2.27 3 4a88.436 88.436 0 0 0 9 13c1.88-.107 2.21.393 1 1.5 1.23 1.405 2.56 2.571 4 3.5a2.424 2.424 0 0 0-2 .5 844.337 844.337 0 0 0 18 27.5 37.79 37.79 0 0 0 6 10c.61 1.934 1.61 3.601 3 5 .83 2.985 2.16 5.651 4 8 1.31 3.28 2.97 6.28 5 9a955.342 955.342 0 0 0 18 37v1c1.77 5.333 4.1 10.333 7 15-.23 2.433.77 4.099 3 5v3c.87 4.723 2.54 9.056 5 13 .9 5.035 2.57 9.701 5 14 .86 5.36 2.53 10.36 5 15 1.31 3.58 2.64 7.25 4 11-.98 2.1-.65 4.1 1 6 1.68 6.78 3.35 13.44 5 20 .13 1.72.46 3.38 1 5 .09 2.29.76 4.29 2 6-.46 5.1.54 9.76 3 14 .87 2.22 1.2 4.55 1 7 .15 3.89.81 7.55 2 11 1.54 4.84 2.21 9.84 2 15 .31 4.85.98 9.52 2 14v2c.23 8.52.9 16.85 2 25v229c-1.02 6.49-1.68 13.15-2 20v2c-1.62 4.76-2.62 9.76-3 15-2.39 3.46-3.06 7.13-2 11-.43 1.21-1.1 2.21-2 3-1.77 2.29-2.77 4.96-3 8-1.17 1.01-1.84 2.35-2 4a6.929 6.929 0 0 0-1 4c-.33.67-.67 1.33-1 2-1.41.47-2.07 1.47-2 3 .17.99-.16 1.66-1 2a178.47 178.47 0 0 0-10 15c-2.09 1.08-3.42 2.75-4 5-4.67 4-9 8.33-13 13 0 .67-.33 1-1 1a73.06 73.06 0 0 0-12 8c-2.75 1.68-5.41 3.34-8 5-2.63 2.1-5.63 3.43-9 4-2.66.43-4.99 1.43-7 3-2.05-.1-3.72.57-5 2h-1c-1.9.3-3.57.96-5 2h-1c-5.24.84-10.24 2.17-15 4h-3c-3.89.15-7.55.81-11 2h-1c-113.32.98-226.66 1.31-340 1-8.47-1.74-17.14-3.08-26-4h-1c-4.05-1.76-8.38-2.76-13-3-2.34-1.54-5-2.21-8-2-5.19-2.95-10.53-4.62-16-5-.99.17-1.66-.16-2-1-4.03-2.24-8.37-3.9-13-5-2.16-.91-4.49-1.57-7-2v-1c-8.13-4.38-16.46-8.38-25-12-5.16-4.09-10.83-7.42-17-10-.34-.84-1.01-1.17-2-1-1.56-.23-2.9-.9-4-2a6.603 6.603 0 0 0-3-3 88.489 88.489 0 0 0-13-9c-.47-1.41-1.47-2.07-3-2-1.079-2.04-2.746-3.38-5-4a61.344 61.344 0 0 0-12-9 6.575 6.575 0 0 0-3-3c-16.448-15.11-31.782-31.11-46-48a8.98 8.98 0 0 1-3-4 26.128 26.128 0 0 0-5-7c-1.051-3.46-3.051-6.13-6-8-.669-3.35-2.336-6.02-5-8-.453-2.07-1.453-3.73-3-5-.91-3.49-2.576-6.49-5-9a5.592 5.592 0 0 0-1-3c-2.136-1.29-4.136-1.29-6 0a517.974 517.974 0 0 0-43-1c-27.497-.83-55.164-1.33-83-1.5-4.667-.74-9.001-2.24-13-4.5-.667 0-1-.33-1-1-4.339-4.03-7.672-8.7-10-14v-1c-.093-5.54-.76-11.21-2-17v-1c1.085-7.17 4.085-13.51 9-19 2.991-1.62 5.324-3.96 7-7 .333-3 2-4.67 5-5a25.772 25.772 0 0 0 6-6l6-6v-1c1.904-.24 3.238-1.24 4-3v-1c4.271-2.6 7.937-5.93 11-10 2.087-1.08 3.42-2.75 4-5 3.333-1.33 5.667-3.67 7-7 4-2 7-5 9-9 1.603-2.45 3.603-4.45 6-6 4.284-2.28 7.618-5.62 10-10 3.043-1.68 5.377-4.01 7-7a57.768 57.768 0 0 0 9-9 25.772 25.772 0 0 0 6-6c4-3.33 7.667-7 11-11 2.097-1.38 2.43-3.05 1-5-.217-4.21-.883-8.21-2-12 .285-3.33-.382-6.33-2-9 .206-3-.46-5.66-2-8-1.158-7.8-3.491-15.14-7-22-1.237-1.46-2.237-3.13-3-5 .903-2.59.236-4.93-2-7-.667 0-1-.33-1-1 .438.07.772-.1 1-.5a90.813 90.813 0 0 0-4-7.5c-1.406-.47-2.073-1.47-2-3 .073-1.53-.594-2.53-2-3-1.525-1.72-2.525-3.72-3-6a17.36 17.36 0 0 0-3.5-7c-.654-1.2-1.154-1.2-1.5 0 .363.68.696 1.35 1 2-1.644-.31-2.644-1.31-3-3 .789-.28 1.456-.78 2-1.5a90.826 90.826 0 0 0-9.5-12.5c-.399.23-.565.56-.5 1-1-.33-1.667-1-2-2 1.025-.4 1.192-1.06.5-2a149.435 149.435 0 0 0-17.5-18c-1-.33-1.667-1-2-2-1.411-2.41-3.411-4.08-6-5a45.463 45.463 0 0 0-10-8c-1.73-.53-3.064-1.53-4-3-.473-1.41-1.473-2.07-3-2-.342-.84-1.008-1.17-2-1-.667 0-1-.33-1-1-6.88-5.61-14.546-9.94-23-13-3.483-2.74-7.483-4.4-12-5-2.014.11-3.68-.558-5-2-1.141-.839-2.474-1.506-4-2-.607.124-.94.457-1 1-2.619-.425-4.953-1.425-7-3-1.637-.88-3.47-1.546-5.5-2-1.03.336-1.53 1.003-1.5 2-1-.333-1.667-1-2-2 .509-.841-.157-1.341-2-1.5a149.928 149.928 0 0 0-17-2.5h-1c-7.103-1.605-14.437-2.272-22-2-4.612.694-9.278.694-14 0-6.562-.163-12.895.504-19 2-3.925-.07-7.591.597-11 2h-1c-3.311-.193-5.978.807-8 3h-2c-.06-.543-.393-.876-1-1-4.616 1.224-8.949 2.891-13 5a163.198 163.198 0 0 0-10 2.5c-1.238.69-1.238 1.19 0 1.5-.342.84-1.008 1.17-2 1-2.184-.61-4.184.06-6 2 0 .67-.333 1-1 1-.06-.54-.393-.88-1-1a568.04 568.04 0 0 0-6 4c-4.155 1.24-7.822 3.24-11 6-1.159 1.75-2.826 2.75-5 3-2.635.97-4.635 2.64-6 5h-1a39.805 39.805 0 0 0-12 9 6.575 6.575 0 0 1-3 3c-4.106 2.93-8.106 6.1-12 9.5-1.323.82-1.989 1.98-2 3.5-.902 1.84-2.236 3.17-4 4a201.167 201.167 0 0 0-11 12.5c.228.4.562.57 1 .5 0 .67-.333 1-1 1-.996-.09-1.829.25-2.5 1a89.215 89.215 0 0 0-9.5 15c-1.846 1.53-2.846 3.53-3 6h-1c-1.174 1.01-1.84 2.35-2 4a82.181 82.181 0 0 0-5 11h-1c-.667 0-1 .33-1 1a33.458 33.458 0 0 0-3 7c-1.701 2.23-3.034 4.73-4 7.5 5.546.47 10.879-.03 16-1.5.891-.61 1.891-.94 3-1a290.22 290.22 0 0 0 34 1c8.229 1.56 16.562 3.23 25 5 2.015 1.42 4.348 2.09 7 2 1.609 1.27 3.442 2.27 5.5 3 .464-.59.631-1.26.5-2 .739-.13 1.406.04 2 .5-1.238.69-1.238 1.19 0 1.5 8.604 4.9 17.271 9.9 26 15 1.527-.07 2.527.59 3 2 4.144 3.57 8.478 6.91 13 10h2a70.83 70.83 0 0 1 3.5 5c.671.75 1.504 1.09 2.5 1 .734 1.21 1.067 2.54 1 4 .851 2.38 2.184 4.38 4 6a29.484 29.484 0 0 1 2 7c.414 2.31.747 4.64 1 7-.688 4.75-1.688 9.42-3 14-2.088 1.84-3.421 4.17-4 7-1.762.76-2.762 2.1-3 4v1a116.676 116.676 0 0 1-5 4l-6 6v3a4.949 4.949 0 0 0-3 .5c-1.032 1.63-2.366 2.79-4 3.5-3 1-5 3-6 6-.667 0-1 .33-1 1-1.904.24-3.238 1.24-4 3 .131.74-.036 1.41-.5 2a115.069 115.069 0 0 0-9.5 8c-4.271 2.6-7.937 5.93-11 10 0 .67-.333 1-1 1a397.77 397.77 0 0 0-34 33c-.913 1.59-.913 3.09 0 4.5-1.049.49-2.049.33-3-.5-1.018.69-2.018 1.36-3 2a96.458 96.458 0 0 0-17 16c-1.667 1-3 2.33-4 4a48.742 48.742 0 0 0-10 9c-.333.67-.667 1.33-1 2-2.667.67-4.333 2.33-5 5h-1c-2.087 1.08-3.42 2.75-4 5h-1c-.958.45-1.792 1.12-2.5 2-1-1.33-2-1.33-3 0-.409 2.49-1.576 4.49-3.5 6 .124.61.457.94 1 1-.342.84-1.008 1.17-2 1 .065-.44-.101-.77-.5-1-1.36 2.52-3.193 4.52-5.5 6-1.667 1-3 2.33-4 4 .947 2.26-.053 3.42-3 3.5a161.383 161.383 0 0 1-11 10.5c-5 3-9 7-12 12-1 .67-2 1.33-3 2-2.053-.1-3.72.57-5 2h-11c-7.112-3.1-13.445-7.43-19-13-1.109.06-2.109.39-3 1 0-.67-.333-1-1-1 0-.67.333-1 1-1 .739.13 1.406-.04 2-.5a12.156 12.156 0 0 0-3.5-4.5c-.399.23-.565.56-.5 1-.838-.34-1.172-1.01-1-2-4.345-6.04-8.679-12.04-13-18-.883-3.2-2.55-5.87-5-8a209.75 209.75 0 0 0-5.5-9 8.43 8.43 0 0 1-.5-4c-1.769-6.65-4.102-12.98-7-19v-1c-.065-2.93-.732-5.59-2-8a174.113 174.113 0 0 1-2-48v-4c1.187-3.45 1.854-7.11 2-11 1.54-2.34 2.206-5 2-8 1.424-2.01 2.09-4.35 2-7a313.821 313.821 0 0 1 10-21.5c-.228-.4-.562-.57-1-.5.56-2.3 1.06-4.63 1.5-7 .333.33.667.67 1 1a83.018 83.018 0 0 1 2.5-3c2.997-4.66 5.997-9.33 9-14-.073-1.53.594-2.53 2-3 .617-.11 1.117-.44 1.5-1a358.18 358.18 0 0 0 1.5-37v-3c1.247-6.13 1.914-12.46 2-19a653.103 653.103 0 0 0 4-27v-3c1.413-2.72 2.08-5.72 2-9v-2a570.72 570.72 0 0 0 8-36l2-8a213.44 213.44 0 0 0 9-31c1.767-2.292 2.767-4.958 3-8 1.037-1.43 1.704-3.097 2-5v-1c1.81-2.645 2.81-5.645 3-9v-1c1.29-.558 2.123-1.558 2.5-3a115.763 115.763 0 0 1 6.5-18 16.339 16.339 0 0 0 2-5c-.098-2.053.569-3.72 2-5 2.125-2.588 3.458-5.588 4-9 1.174-1.014 1.84-2.347 2-4 1.431-1.28 2.098-2.947 2-5 3.079-4.202 5.413-8.868 7-14 2.125-2.588 3.458-5.588 4-9-.237-1.291.096-2.291 1-3a2.428 2.428 0 0 0 .5 2 42.494 42.494 0 0 0 5.5-11 5.727 5.727 0 0 1 1-3c1-.333 1.667-1 2-2 1.174-1.014 1.84-2.347 2-4a869.477 869.477 0 0 1 33.5-51c1.009-1.525 1.509-3.192 1.5-5 0-.667.333-1 1-1 1.644-.31 2.644-1.31 3-3a81.338 81.338 0 0 1 5-5.5c-.228-.399-.562-.565-1-.5.359-1.871 1.359-3.371 3-4.5l-1-1c1.401-.41 2.734-.91 4-1.5a205.748 205.748 0 0 0 15-19 26.584 26.584 0 0 0 8-9c2.414-1.411 4.081-3.411 5-6l1-2a159.187 159.187 0 0 0 15-15 95711.303 95711.303 0 0 1 32-31c0-.667.333-1 1-1a160.385 160.385 0 0 0 16-14c0-.667.333-1 1-1a68.014 68.014 0 0 0 15-12 579.57 579.57 0 0 1 6-5c2.174-.25 3.841-1.25 5-3 1.007-2.022 2.674-3.355 5-4 16.008-10.336 32.008-20.67 48-31 0-.667.333-1 1-1 5.015-.833 9.015-3.166 12-7 3.776-.914 6.776-2.914 9-6l2 1c1.122-1.13 2.456-1.797 4-2a10.134 10.134 0 0 0 4-1.5 4.934 4.934 0 0 0-3-.5v-1c1.734-1.062 3.401-1.062 5 0 1.653-.16 2.986-.826 4-2 2.132-.054 3.465-1.054 4-3a31.686 31.686 0 0 1 6-2c4.978-1.432 9.644-3.432 14-6 .992.172 1.658-.162 2-1 3.637-.763 6.97-2.097 10-4 7.388-1.903 14.388-4.57 21-8h1c4.18-.282 7.847-1.615 11-4h1a19.22 19.22 0 0 1 6-1v-270a577.233 577.233 0 0 1 1-42c-.268-1.599.066-2.932 1-4 1.75-1.159 2.75-2.826 3-5a26.707 26.707 0 0 0 5-7v-1h1c1.73-.526 3.064-1.526 4-3a66.118 66.118 0 0 1 15-5 243.066 243.066 0 0 1 30-1z" opacity=".999"/><path fill="#b3721a" d="M837.5 266.5v2a66.118 66.118 0 0 0-15 5c3.519-5.116 8.519-7.45 15-7z" opacity=".035"/><path fill="#bb470e" d="M867.5 267.5v-1c8.368-.51 16.534.157 24.5 2a22.956 22.956 0 0 0 5-1 564.11 564.11 0 0 1 26.5 7 535.303 535.303 0 0 0-56-7z" opacity=".082"/><path fill="#4ca6ff" d="M942.5 271.5c4.088-.282 4.588.385 1.5 2-1.03-.336-1.53-1.003-1.5-2z" opacity=".004"/><path fill="#857a24" d="M822.5 273.5c-.936 1.474-2.27 2.474-4 3 .146-3.05 1.48-4.05 4-3z" opacity=".208"/><path fill="#003200" d="M935.5 274.5c1.333.667 1.333.667 0 0z" opacity=".012"/><path fill="#c56807" d="m952.5 273.5-1 2c-2.293-.801-1.96-1.468 1-2z" opacity=".051"/><path fill="#26d619" d="M952.5 273.5a9.86 9.86 0 0 1 6 1 13.116 13.116 0 0 1-7 1l1-2z" opacity=".027"/><path fill="#003" d="M817.5 276.5c-.667-1.333-.667-1.333 0 0z" opacity=".008"/><path fill="#ca4023" d="M925.5 274.5c2.885-.306 5.552.027 8 1-2.744.991-5.411.657-8-1z" opacity=".173"/><path fill="#b5483f" d="M935.5 276.5c2.198-.38 3.865.287 5 2-2.628-.036-4.295-.703-5-2z" opacity=".114"/><path fill="#c99700" d="M944.5 276.5c1.333.667 1.333.667 0 0z" opacity=".004"/><path fill="#d15907" d="M942.5 278.5a18.453 18.453 0 0 1 6 .5c.556.383.889.883 1 1.5-2.652.09-4.985-.576-7-2z" opacity=".012"/><path fill="#2bad00" d="M960.5 277.5c6.621.978 6.621 1.978 0 3-1.062-.925-1.062-1.925 0-3z" opacity=".051"/><path fill="#000065" d="M807.5 279.5c1.333.667 1.333.667 0 0z" opacity=".02"/><path fill="#8e5d00" d="M817.5 277.5a26.707 26.707 0 0 1-5 7v-3c1.26-1.867 2.927-3.2 5-4z" opacity=".208"/><path fill="#c24707" d="M959.5 283.5c3.878-.476 7.212.524 10 3-3.662-.223-6.995-1.223-10-3z" opacity=".075"/><path fill="#000001" d="M809.5 285.5c-.667-1.333-.667-1.333 0 0z" opacity=".02"/><path fill="#44ae18" d="M812.5 281.5v3c-.25 2.174-1.25 3.841-3 5v-4c.79-1.109 1.29-2.442 1.5-4 .69-1.238 1.19-1.238 1.5 0z" opacity=".118"/><path fill="#d6572e" d="M969.5 286.5a56.433 56.433 0 0 1 10 2.5c1.442.377 2.442 1.21 3 2.5-4.644-1.099-8.978-2.766-13-5z" opacity=".157"/><path fill="#5899ff" d="M998.5 288.5c.751-1.073 1.75-1.24 3-.5a4.936 4.936 0 0 1-3 .5z" opacity=".004"/><path fill="#00df0b" d="M991.5 291.5c.64-1.832 1.64-2.165 3-1-.825.886-1.825 1.219-3 1z" opacity=".027"/><path fill="#dd5a2c" d="M991.5 291.5v3c3.602.192 6.602 1.526 9 4a100.911 100.911 0 0 1-15-6c2.121.175 4.121-.159 6-1z" opacity=".094"/><path fill="#003200" d="M1007.5 295.5c1.33.667 1.33.667 0 0z" opacity=".012"/><path fill="#000700" d="M1014.5 296.5c1.33.667 1.33.667 0 0z" opacity=".035"/><path fill="#009700" d="M1008.5 298.5c.4-1.025 1.06-1.192 2-.5-.59.464-1.26.631-2 .5z" opacity=".004"/><path fill="#003200" d="M1013.5 299.5c-.67-1.333-.67-1.333 0 0z" opacity=".012"/><path fill="#00c800" d="M802.5 298.5c1.288 1.535 1.288 3.201 0 5-1.166-1.667-1.166-3.334 0-5z" opacity=".012"/><path fill="#009700" d="M1013.5 299.5c1.33.667 1.33.667 0 0z" opacity=".004"/><path fill="#9d4523" d="M1002.5 298.5a18.41 18.41 0 0 1 3.5 2c3.12-1.598 3.96-.931 2.5 2-2.72-.437-4.72-1.77-6-4z" opacity=".145"/><path fill="#009700" d="M1014.5 301.5c1.33.667 1.33.667 0 0z" opacity=".004"/><path fill="#e04823" d="M1017.5 306.5c-2.98-.826-5.65-2.159-8-4 1 .086 1.83-.248 2.5-1 1.81 1.8 3.65 3.467 5.5 5z" opacity=".059"/><path fill="#009700" d="M1027.5 303.5c1.33.667 1.33.667 0 0z" opacity=".004"/><path fill="#ac6d04" d="M808.5 293.5a577.233 577.233 0 0 0-1 42h-1c-.167-13.337 0-26.671.5-40 .278-.916.778-1.582 1.5-2z" opacity=".106"/><path fill="#462c05" d="M1023.5 306.5c.4-1.025 1.06-1.192 2-.5-.59.464-1.26.631-2 .5z" opacity=".024"/><path fill="#009700" d="M1023.5 306.5c-.67.667-.67.667 0 0z" opacity=".004"/><path fill="#1bd200" d="M1032.5 306.5c1.35-1.297 2.68-1.13 4 .5-1.43.579-2.76.412-4-.5z" opacity=".012"/><path fill="#a06519" d="M1029.5 312.5c-2.32-.492-4.32-1.492-6-3 3.24-1.797 5.24-.797 6 3z" opacity=".059"/><path fill="#003" d="M1035.5 312.5c1.33.667 1.33.667 0 0z" opacity=".008"/><path fill="#bc5038" d="M1029.5 312.5c4.38.692 8.05 2.692 11 6-3.83-1.75-7.5-3.75-11-6z" opacity=".153"/><path fill="#008500" d="M1052.5 320.5a2.424 2.424 0 0 1-2-.5c.94-.692 1.6-.525 2 .5z" opacity=".059"/><path fill="#009700" d="M1054.5 319.5c1.33.667 1.33.667 0 0z" opacity=".012"/><path fill="#00fc00" d="M1052.5 320.5c1.33.667 1.33.667 0 0z" opacity=".012"/><path fill="#009700" d="M1054.5 321.5c1.33.667 1.33.667 0 0z" opacity=".012"/><path fill="#a54135" d="M1041.5 318.5c4.84 1.918 9.18 4.584 13 8-5.3-1.199-9.63-3.866-13-8z" opacity=".094"/><path fill="#dd4a15" d="M1054.5 326.5a5.72 5.72 0 0 1 3 1v1c-1.53.073-2.53-.594-3-2z" opacity=".012"/><path fill="#42d41e" d="M1057.5 328.5v-1c1.88-.271 3.21.396 4 2l-4-1z" opacity=".071"/><path fill="#01d813" d="M1069.5 329.5c2.47.447 2.64 1.447.5 3-1.73-.852-1.9-1.852-.5-3z" opacity=".071"/><path fill="#009700" d="M1085.5 335.5c1.33.667 1.33.667 0 0z" opacity=".004"/><path fill="#c35f4b" d="M1075.5 340.5c-2.87-.933-5.2-2.6-7-5 .62-.111 1.12-.444 1.5-1 1.24 2.038 3.07 3.205 5.5 3.5 1.1.77 1.1 1.603 0 2.5z" opacity=".176"/><path fill="#5eb1ff" d="M1081.5 337.5c1.83.64 2.17 1.64 1 3-2.02-.633-2.35-1.633-1-3z" opacity=".024"/><path fill="#bc3838" d="M1095.5 355.5c-2.59-.919-4.59-2.586-6-5 .62-.111 1.12-.444 1.5-1a54.76 54.76 0 0 1 4.5 6z" opacity=".027"/><path fill="#003" d="M1096.5 351.5c1.33.667 1.33.667 0 0z" opacity=".008"/><path fill="#05db45" d="M1108.5 356.5c.4-1.025 1.06-1.192 2-.5-.59.464-1.26.631-2 .5z" opacity=".008"/><path fill="#b45e23" d="M1101.5 360.5c4.85.853 8.18 3.52 10 8a57.656 57.656 0 0 1-10-8z" opacity=".118"/><path fill="#a17875" d="M1118.5 368.5c2.35 1.043 2.52 2.376.5 4-1.77-1.182-1.93-2.515-.5-4z" opacity=".008"/><path fill="#000051" d="M1125.5 377.5c1.33.667 1.33.667 0 0z" opacity=".031"/><path fill="#000060" d="M1133.5 385.5c1.33.667 1.33.667 0 0z" opacity=".067"/><path fill="#ae5418" d="M1116.5 372.5c2.48 2.741 5.48 4.741 9 6 3.6 6.101 8.43 11.101 14.5 15a69.24 69.24 0 0 1 5.5 9 1252.727 1252.727 0 0 1-30-29.5c.23-.399.56-.565 1-.5z" opacity=".118"/><path fill="#338d4a" d="M1149.5 399.5c2.47.447 2.64 1.447.5 3a9.39 9.39 0 0 0-2.5-1.5c.92-.278 1.58-.778 2-1.5z" opacity=".035"/><path fill="#ae99ff" d="M1154.5 404.5c1.1-1.098 2.43-1.265 4-.5a8.43 8.43 0 0 1-4 .5z" opacity=".004"/><path fill="#0000b1" d="M1149.5 404.5c1.33.667 1.33.667 0 0z" opacity=".078"/><path fill="#9f621f" d="M1145.5 402.5a4.939 4.939 0 0 1 3 .5c-1.07 1.159-.73 1.992 1 2.5 5.09 3.439 8.76 8.105 11 14a245.51 245.51 0 0 0-13-13.5l-3-1c.75-.671 1.09-1.504 1-2.5z" opacity=".075"/><path fill="#003" d="M1163.5 417.5c1.33.667 1.33.667 0 0z" opacity=".012"/><path fill="#003" d="M1162.5 419.5c1.33.667 1.33.667 0 0z" opacity=".008"/><path fill="#a45717" d="M1164.5 425.5h3c.13 1.716.46 3.383 1 5a21.588 21.588 0 0 1-4-5z" opacity=".051"/><path fill="#9f8216" d="M1169.5 431.5c2.51 1.315 4.34 3.315 5.5 6 .58-2.624 1.91-3.291 4-2a310.05 310.05 0 0 1-2.5 6c-2.53-3.188-5.2-6.355-8-9.5.23-.399.56-.565 1-.5z" opacity=".004"/><path fill="#00007f" d="M1178.5 440.5c1.33.667 1.33.667 0 0z" opacity=".012"/><path fill="#b63f30" d="M1177.5 442.5c.96.453 1.79 1.119 2.5 2 .81-2.401 1.64-2.234 2.5.5-.67.333-1.33.667-2 1 .75.671 1.09 1.504 1 2.5-2.32-1.302-3.66-3.302-4-6z" opacity=".122"/><path fill="#a08cff" d="M1193.5 447.5c1.18-.219 2.18.114 3 1-1.55 1.298-2.55.965-3-1z" opacity=".024"/><path fill="#008d00" d="M1187.5 449.5c1.03.397 1.19 1.063.5 2-.46-.594-.63-1.261-.5-2z" opacity=".004"/><path fill="#927711" d="M1181.5 448.5c1.84.622 3 1.956 3.5 4 .33-.333.67-.667 1-1a41.724 41.724 0 0 1 1.5 5c-1 .086-1.83-.248-2.5-1-1.19-2.386-2.36-4.72-3.5-7z" opacity=".09"/><path fill="#ff96da" d="M1189.5 451.5c1.03.397 1.19 1.063.5 2-.46-.594-.63-1.261-.5-2z" opacity=".008"/><path fill="#53db1e" d="M1191.5 454.5c1.46.958 2.79 2.124 4 3.5l-1.5 1.5c-1.89-1.117-2.73-2.784-2.5-5z" opacity=".027"/><path fill="#d86625" d="M1188.5 459.5c1.55.321 2.21 1.321 2 3-.9-.79-1.57-1.79-2-3z" opacity=".149"/><path fill="#32c62a" d="M1196.5 461.5c1.18-.219 2.18.114 3 1-4.16 5.137-5.16 4.803-3-1z" opacity=".008"/><path fill="#00004c" d="M1197.5 466.5c1.33.667 1.33.667 0 0z" opacity=".039"/><path fill="#29b100" d="M1198.5 473.5c0-.667-.33-1-1-1 .49-.973.99-1.973 1.5-3 .76 1.566.6 2.899-.5 4z" opacity=".012"/><path fill="#a63e16" d="M1195.5 470.5c.33 1 1 1.667 2 2 .67 0 1 .333 1 1 1.43 2.058 2.1 4.392 2 7a474.979 474.979 0 0 0-6-9c.12-.607.46-.94 1-1z" opacity=".188"/><path fill="#02a019" d="M1206.5 483.5c.14-1.837.81-2.17 2-1-.46.798-1.12 1.131-2 1z" opacity=".004"/><path fill="#00fc00" d="M1206.5 483.5v1c-.67-.481-.67-.815 0-1z" opacity=".012"/><path fill="#c99700" d="M1213.5 483.5c1.21.997 1.05 1.997-.5 3-.47-1.077-.3-2.077.5-3z" opacity=".004"/><path fill="#286f00" d="M1206.5 484.5c1.33.667 1.33.667 0 0z" opacity=".024"/><path fill="#ca5a33" d="M1202.5 484.5c2.04 1.411 3.04 3.411 3 6-1.51-1.681-2.51-3.681-3-6z" opacity=".094"/><path fill="#04b828" d="M1210.5 488.5c1.03.397 1.19 1.063.5 2-.46-.594-.63-1.261-.5-2z" opacity=".004"/><path fill="#aa5d12" d="M1205.5 490.5c3.9 3.801 6.23 8.467 7 14-2.84-4.349-5.17-9.016-7-14z" opacity=".059"/><path fill="#003" d="M1214.5 503.5c1.33.667 1.33.667 0 0z" opacity=".008"/><path fill="#de5929" d="M1212.5 504.5c2.53 2.736 3.87 6.07 4 10-1.9-3.018-3.23-6.351-4-10z" opacity=".012"/><path fill="#236327" d="M1217.5 511.5c1.03.397 1.19 1.063.5 2-.46-.594-.63-1.261-.5-2z" opacity=".004"/><path fill="#437600" d="M1219.5 511.5c2.15.196 2.31 1.196.5 3a4.949 4.949 0 0 1-.5-3z" opacity=".051"/><path fill="#009700" d="M1226.5 512.5c2.5.011 2.67.678.5 2-.46-.594-.63-1.261-.5-2z" opacity=".004"/><path fill="#907509" d="M1216.5 514.5c1-.086 1.83.248 2.5 1a63.374 63.374 0 0 1 4.5 18c-2.5-6.17-4.84-12.504-7-19z" opacity=".184"/><path fill="#adbbfd" d="M1224.5 529.5c.4-1.025 1.06-1.192 2-.5-.59.464-1.26.631-2 .5z" opacity=".004"/><path fill="#003200" d="M1227.5 539.5c1.33.667 1.33.667 0 0z" opacity=".012"/><path fill="#b14f17" d="M1228.5 548.5a122.71 122.71 0 0 1 5 11.5c-.75.671-1.09 1.504-1 2.5-1.93-4.388-3.27-9.055-4-14z" opacity=".145"/><path fill="#268300" d="M1237.5 559.5c.79.283 1.46.783 2 1.5a27.045 27.045 0 0 0-1.5 6.5c-.5-2.646-.66-5.313-.5-8z" opacity=".02"/><path fill="#d5481f" d="M1232.5 562.5a60.726 60.726 0 0 0 3 7c-.29 2.235.04 4.235 1 6v5c-1.96-5.739-3.3-11.739-4-18z" opacity=".02"/><path fill="#2c8f00" d="M1235.5 569.5c.88-.131 1.54.202 2 1a9.126 9.126 0 0 0-1 5c-.96-1.765-1.29-3.765-1-6z" opacity=".02"/><path fill="#d5550d" d="M806.5 335.5h1v270a19.22 19.22 0 0 0-6 1l-1-2h6v-269z" opacity=".094"/><path fill="#f7414a" d="M1236.5 580.5c1.72 3.345 2.38 7.011 2 11-1.19-3.446-1.85-7.113-2-11z" opacity=".047"/><path fill="#009700" d="M1242.5 588.5c1.03.397 1.19 1.063.5 2-.46-.594-.63-1.261-.5-2z" opacity=".004"/><path fill="#09a400" d="M1244.5 591.5c1.14 2.804 1.3 5.804.5 9-1.72-2.954-1.89-5.954-.5-9z" opacity=".004"/><path fill="#6767dc" d="M800.5 604.5c-1.025-.397-1.192-1.063-.5-2 .464.594.631 1.261.5 2z" opacity=".039"/><path fill="#09dc32" d="M806.5 601.5v3h-5c1.17-1.779 2.836-2.779 5-3z" opacity=".112"/><path fill="#009700" d="M752.5 607.5c1.333.667 1.333.667 0 0z" opacity=".004"/><path fill="#00c500" d="M778.5 608.5c-1.322-.17-2.489.163-3.5 1l-1.5-1.5c1.887-.78 3.554-.613 5 .5z" opacity=".024"/><path fill="#113319" d="M778.5 608.5a4.934 4.934 0 0 1 3 .5c-1.249.74-2.249.573-3-.5z" opacity=".024"/><path fill="#00800b" d="M789.5 609.5a20.093 20.093 0 0 1-6-1.5c2.381-.738 4.381-.238 6 1.5z" opacity=".02"/><path fill="#873b0c" d="M800.5 606.5c-3.153 2.385-6.82 3.718-11 4v-1a24.158 24.158 0 0 1 11-3z" opacity=".541"/><path fill="#00f50e" d="M767.5 609.5c1.175-.219 2.175.114 3 1-1.552 1.298-2.552.965-3-1z" opacity=".078"/><path fill="#00e000" d="M1246.5 607.5c1.11 1.446 1.28 3.113.5 5a13.007 13.007 0 0 1-.5-5z" opacity=".051"/><path fill="#db5025" d="M1241.5 607.5c.17 2.361.51 4.694 1 7-1.23-.652-1.89-1.819-2-3.5.01-1.385.35-2.551 1-3.5z" opacity=".035"/><path fill="#5c99ff" d="M758.5 613.5c2.473.447 2.64 1.447.5 3a11.333 11.333 0 0 0-3.5-1.5c1.237-.232 2.237-.732 3-1.5z" opacity=".004"/><path fill="#bb6e1f" d="M788.5 610.5c-6.612 3.43-13.612 6.097-21 8 6.228-4.611 13.228-7.277 21-8z" opacity=".098"/><path fill="#009700" d="M1246.5 619.5c1.33.667 1.33.667 0 0z" opacity=".004"/><path fill="#bc5536" d="M767.5 618.5c-3.03 1.903-6.363 3.237-10 4 1.237-1.597 2.904-2.763 5-3.5a12.93 12.93 0 0 1 5-.5z" opacity=".114"/><path fill="#6aabff" d="M757.5 622.5c-.342.838-1.008 1.172-2 1-1.459-.067-2.792.266-4 1a4.934 4.934 0 0 1 .5-3c1.829.065 3.662.398 5.5 1z" opacity=".098"/><path fill="#ab6817" d="M1243.5 619.5c.89.61 1.89.943 3 1 4.67 2.333 9.33 4.667 14 7h-2a235.521 235.521 0 0 1-16-6c-1.17-1.194-.84-1.861 1-2z" opacity=".082"/><path fill="#009700" d="M735.5 624.5c.751-1.073 1.751-1.24 3-.5a4.934 4.934 0 0 1-3 .5z" opacity=".009"/><path fill="#ab6b08" d="M755.5 623.5c-4.356 2.568-9.022 4.568-14 6 1.69-1.842 3.69-3.175 6-4 1.459.067 2.792-.266 4-1 1.208-.734 2.541-1.067 4-1z" opacity=".137"/><path fill="#040016" d="M747.5 625.5a2.428 2.428 0 0 1-2-.5c.937-.692 1.603-.525 2 .5z" opacity=".02"/><path fill="#fe5104" d="M1262.5 626.5c.4-1.025 1.06-1.192 2-.5-.59.464-1.26.631-2 .5z" opacity=".012"/><path fill="#07e33c" d="M719.5 626.5c1.175-.219 2.175.114 3 1-1.552 1.298-2.552.965-3-1z" opacity=".008"/><path fill="#b6551d" d="M1258.5 627.5h2c1.73.526 3.06 1.526 4 3-2.32-.492-4.32-1.492-6-3z" opacity=".071"/><path fill="#009700" d="M1277.5 631.5c.4-1.025 1.06-1.192 2-.5-.59.464-1.26.631-2 .5z" opacity=".004"/><path fill="#004000" d="M1275.5 631.5c1.33.667 1.33.667 0 0z" opacity=".035"/><path fill="#5fa4ff" d="M735.5 631.5c-.535 1.946-1.868 2.946-4 3h-1c1.105-1.723 2.772-2.723 5-3z" opacity=".051"/><path fill="#bc3f27" d="M1275.5 632.5c-.67.667-1.33 1.333-2 2-3.41-.575-6.41-1.908-9-4 .9-1.098 1.73-1.098 2.5 0 .67-.667 1.33-1.333 2-2-.15 1.325.02 2.492.5 3.5 1.97.495 3.97.662 6 .5z" opacity=".078"/><path fill="#0da3ff" d="M726.5 633.5c1.333.667 1.333.667 0 0z" opacity=".075"/><path fill="#003" d="M1281.5 633.5c1.33.667 1.33.667 0 0z" opacity=".012"/><path fill="#004201" d="M722.5 636.5c-1.256.039-2.256-.461-3-1.5 1.498-.585 2.498-.085 3 1.5z" opacity=".012"/><path fill="#de431a" d="M730.5 634.5h1c-1.014 1.174-2.347 1.84-4 2 .473-1.406 1.473-2.073 3-2z" opacity=".157"/><path fill="#b76a18" d="M1289.5 642.5a67.648 67.648 0 0 1-12-6c1.64-.718 3.3-.884 5-.5a63.707 63.707 0 0 0 7 6.5z" opacity=".02"/><path fill="#f0331d" d="M722.5 637.5a4.934 4.934 0 0 1 3 .5 10.134 10.134 0 0 1-4 1.5l1-2z" opacity=".133"/><path fill="#003200" d="M712.5 639.5c1.333.667 1.333.667 0 0z" opacity=".012"/><path fill="#38bc00" d="M1303.5 640.5c1.21-1.282 2.54-1.282 4 0-1.31 1.126-2.64 1.126-4 0z" opacity=".033"/><path fill="#003200" d="M1303.5 640.5c-.67.667-.67.667 0 0zm-5 1c1.33.667 1.33.667 0 0z" opacity=".02"/><path fill="#009700" d="M1301.5 643.5c-.67-1.333-.67-1.333 0 0z" opacity=".004"/><path fill="#003200" d="M1301.5 643.5c1.33.667 1.33.667 0 0z" opacity=".012"/><path fill="#c16236" d="M1293.5 644.5a18.44 18.44 0 0 1 6 .5c-1.1.77-1.1 1.603 0 2.5-2.32-.492-4.32-1.492-6-3z" opacity=".106"/><path fill="#007c00" d="M688.5 648.5c.397-1.025 1.063-1.192 2-.5a2.428 2.428 0 0 1-2 .5z" opacity=".024"/><path fill="#588813" d="M1310.5 647.5c-1.33.333-1.33.667 0 1-1.61 1.055-2.95.555-4-1.5 1.34-1.544 2.67-1.377 4 .5z" opacity=".051"/><path fill="#009700" d="M1310.5 647.5c1.33.667 1.33.667 0 0z" opacity=".004"/><path fill="#05db45" d="M688.5 648.5a2.428 2.428 0 0 0 2-.5c-.937-.692-1.603-.525-2 .5z" opacity=".008"/><path fill="#a55f1f" d="M1299.5 647.5c5.46 2.232 10.8 4.732 16 7.5a1245.133 1245.133 0 0 1 35 21.5c.61.891.94 1.891 1 3a1318.073 1318.073 0 0 0-52-32z" opacity=".251"/><path fill="#868f10" d="M706.5 646.5c-2.985 3.834-6.985 6.167-12 7-1.158-1.45-.658-2.45 1.5-3l1 1a129.462 129.462 0 0 1 9.5-5z" opacity=".075"/><path fill="#009700" d="M680.5 655.5c1.333.667 1.333.667 0 0z" opacity=".012"/><path fill="#7c810f" d="M1322.5 655.5c1.93-.269 3.6.231 5 1.5-1.43-.311-2.77-.145-4 .5-.8-.457-1.13-1.124-1-2z" opacity=".035"/><path fill="#003" d="M682.5 656.5c1.333.667 1.333.667 0 0z" opacity=".008"/><path fill="#a499ff" d="M665.5 659.5c6.42.603 6.254 1.603-.5 3l-1.5-1a31.147 31.147 0 0 0 2-2z" opacity=".004"/><path fill="#adacfe" d="M674.5 658.5c3.297-.171 3.631.495 1 2-.798-.457-1.131-1.124-1-2z" opacity=".004"/><path fill="#04ec29" d="M1341.5 665.5c1.84.139 2.17.806 1 2-.8-.457-1.13-1.124-1-2z" opacity=".035"/><path fill="#a37517" d="M693.5 654.5c-15.992 10.33-31.992 20.664-48 31a57.42 57.42 0 0 0 9-9 3.647 3.647 0 0 1 1.5 1 32.6 32.6 0 0 0 4.5-4 685.241 685.241 0 0 0 28-17.5c1.525-1.009 3.192-1.509 5-1.5z" opacity=".09"/><path fill="#00dc00" d="M647.5 672.5c1.208-1.282 2.542-1.282 4 0-1.308 1.126-2.642 1.126-4 0z" opacity=".024"/><path fill="#003200" d="M660.5 673.5c-.667-1.333-.667-1.333 0 0z" opacity=".02"/><path fill="#009700" d="M639.5 674.5c.577-1.273 1.243-1.273 2 0-.47.963-1.137.963-2 0z" opacity=".004"/><path fill="#003" d="M655.5 673.5c1.333.667 1.333.667 0 0zm695 2c1.33.667 1.33.667 0 0z" opacity=".012"/><path fill="#629c00" d="M1352.5 673.5h3v3h-3v-3z" opacity=".012"/><path fill="#6497ff" d="M644.5 676.5a7.47 7.47 0 0 1 3 2c-1.333 1.333-2.667 1.333-4 0 .363-.683.696-1.35 1-2z" opacity=".004"/><path fill="#07e937" d="M639.5 682.5c3.297-.171 3.631.495 1 2-.798-.457-1.131-1.124-1-2z" opacity=".008"/><path fill="#c76f25" d="M1364.5 688.5a67.324 67.324 0 0 1-7-5c4.42-1.606 6.75.061 7 5z" opacity=".106"/><path fill="#cf7123" d="M640.5 689.5c-1.159 1.75-2.826 2.75-5 3-.453-.958-1.119-1.792-2-2.5 2.328.804 4.661.637 7-.5z" opacity=".149"/><path fill="#00c300" d="M627.5 691.5c1.548.321 2.215 1.321 2 3-2.748.098-3.414-.902-2-3z" opacity=".012"/><path fill="#009700" d="M624.5 696.5c-.667-1.333-.667-1.333 0 0z" opacity=".004"/><path fill="#003200" d="M1379.5 696.5c1.33.667 1.33.667 0 0zm3 0c1.33.667 1.33.667 0 0z" opacity=".02"/><path fill="#1c79aa" d="M624.5 696.5c1.025.397 1.192 1.063.5 2a2.428 2.428 0 0 1-.5-2z" opacity=".133"/><path fill="#009700" d="M1382.5 697.5c-.67.667-.67.667 0 0z" opacity=".004"/><path fill="#009700" d="M609.5 703.5c1.333.667 1.333.667 0 0z" opacity=".02"/><path fill="#ab6e17" d="M629.5 697.5a68.014 68.014 0 0 1-15 12c4.102-5.206 9.102-9.206 15-12z" opacity=".094"/><path fill="#009700" d="M1394.5 704.5c-.86.963-1.53.963-2 0 .76-1.273 1.42-1.273 2 0z" opacity=".007"/><path fill="#007a00" d="M607.5 704.5c1.333.667 1.333.667 0 0z" opacity=".035"/><path fill="#009700" d="M1394.5 704.5c1.33.667 1.33.667 0 0z" opacity=".004"/><path fill="#689dff" d="M605.5 706.5c2.512.716 2.512 1.716 0 3-1.062-.925-1.062-1.925 0-3z" opacity=".004"/><path fill="#8e6415" d="M1374.5 694.5a11.737 11.737 0 0 0 5 3c.34.838 1.01 1.172 2 1 2.98 3.343 6.31 7.009 10 11a374.205 374.205 0 0 1-19-14.5 2.424 2.424 0 0 1 2-.5z" opacity=".247"/><path fill="#009700" d="M597.5 708.5c1.965.448 2.298 1.448 1 3-.886-.825-1.219-1.825-1-3z" opacity=".004"/><path fill="#4ae51d" d="M1401.5 706.5c1.68.683 2.34 2.017 2 4h-3a6.927 6.927 0 0 1 1-4z" opacity=".012"/><path fill="#a07822" d="M1392.5 709.5a26.491 26.491 0 0 1 9 8c-3.65-1.982-6.65-4.649-9-8z" opacity=".078"/><path fill="#265f00" d="M1406.5 716.5c1.03.397 1.19 1.063.5 2-.46-.594-.63-1.261-.5-2z" opacity=".024"/><path fill="#003" d="M598.5 720.5c-.667-1.333-.667-1.333 0 0z" opacity=".008"/><path fill="#000700" d="M595.5 720.5c1.333.667 1.333.667 0 0z" opacity=".071"/><path fill="#009700" d="M1418.5 720.5c.79.283 1.46.783 2 1.5-1.32.528-1.98.028-2-1.5z" opacity=".004"/><path fill="#005d00" d="M591.5 722.5c1.333.667 1.333.667 0 0z" opacity=".035"/><path fill="#9d4228" d="M613.5 710.5a160.385 160.385 0 0 1-16 14c.077-1.25.744-2.083 2-2.5-.556-.383-.889-.883-1-1.5a115.023 115.023 0 0 1 15-10z" opacity=".306"/><path fill="#be513c" d="M1411.5 726.5c-1.9-.238-3.24-1.238-4-3 2.49-1.245 3.82-.245 4 3z" opacity=".106"/><path fill="#719a00" d="M1415.5 723.5c1.96.448 2.3 1.448 1 3-2.02-.633-2.35-1.633-1-3z" opacity=".012"/><path fill="#003" d="M1421.5 728.5a2.424 2.424 0 0 1-2-.5c.94-.692 1.6-.525 2 .5z" opacity=".008"/><path fill="#009700" d="M579.5 728.5c1.098 1.101 1.265 2.434.5 4a8.43 8.43 0 0 1-.5-4z" opacity=".004"/><path fill="#325fd1" d="M584.5 727.5c.789.283 1.456.783 2 1.5-1.316.528-1.983.028-2-1.5z" opacity=".169"/><path fill="#2d77fa" d="M1415.5 729.5c.4-1.025 1.06-1.192 2-.5-.59.464-1.26.631-2 .5z" opacity=".208"/><path fill="#766d19" d="M1421.5 728.5c1.98.927 2.31 2.26 1 4 .12-1.11-.21-2.444-1-4z" opacity=".004"/><path fill="#a7683c" d="M1418.5 732.5c2.4 2.048 5.06 3.881 8 5.5.84 1.011 1.17 2.178 1 3.5a30.406 30.406 0 0 1-8.5-7c-.46-.594-.63-1.261-.5-2z" opacity=".078"/><path fill="#006a00" d="M1430.5 736.5c-.67-1.333-.67-1.333 0 0z" opacity=".09"/><path fill="#003" d="M1427.5 736.5c1.33.667 1.33.667 0 0z" opacity=".008"/><path fill="#00bc00" d="M1430.5 736.5c.86-.963 1.53-.963 2 0-.76 1.273-1.42 1.273-2 0z" opacity=".004"/><path fill="#003600" d="M576.5 736.5c1.025.397 1.192 1.063.5 2a2.428 2.428 0 0 1-.5-2z" opacity=".02"/><path fill="#4cdf13" d="M1433.5 737.5h3v3h-3v-3z" opacity=".012"/><path fill="#b15832" d="M596.5 725.5a95711.303 95711.303 0 0 0-32 31c1.914-4.139 4.58-7.805 8-11a193.64 193.64 0 0 0 21-19.5 4.934 4.934 0 0 1 3-.5z" opacity=".192"/><path fill="#00004c" d="M1437.5 746.5c1.33.667 1.33.667 0 0z" opacity=".039"/><path fill="#643421" d="M1427.5 741.5c.97.487 1.97.987 3 1.5 3.26 3.417 6.26 6.917 9 10.5-2.04-2.141-4.54-3.474-7.5-4-.33-1.333-.67-2.667-1-4-2.07-.603-3.24-1.936-3.5-4z" opacity=".848"/><path fill="#112e18" d="M1443.5 752.5a2.424 2.424 0 0 1-2-.5c.94-.692 1.6-.525 2 .5z" opacity=".059"/><path fill="#004000" d="M1443.5 752.5c1.33.667 1.33.667 0 0z" opacity=".035"/><path fill="#101c27" d="M560.5 752.5c1.025.397 1.192 1.063.5 2a2.428 2.428 0 0 1-.5-2z" opacity=".008"/><path fill="#e06a10" d="M1451.5 755.5c.14-1.837.81-2.17 2-1-.46.798-1.12 1.131-2 1z" opacity=".024"/><path fill="#009700" d="M552.5 756.5c1.101-1.098 2.434-1.265 4-.5a8.43 8.43 0 0 1-4 .5zm899-1c-.67.667-.67.667 0 0z" opacity=".004"/><path fill="#888afd" d="M1454.5 756.5c1.28.886 1.28 1.886 0 3-1.06-.925-1.06-1.925 0-3z" opacity=".012"/><path fill="#c66b26" d="M564.5 756.5a159.187 159.187 0 0 1-15 15c3.333-6.667 8.333-11.667 15-15z" opacity=".161"/><path fill="#a86537" d="M1442.5 756.5c3.05 1.959 5.88 4.292 8.5 7 .33-.333.67-.667 1-1 1.11 1.26 1.28 2.427.5 3.5 1.33.667 2.67 1.333 4 2-.46.414-.79.914-1 1.5 2.76 2.752 5.1 5.752 7 9a310.194 310.194 0 0 1-20-22z" opacity=".082"/><path fill="#004600" d="M546.5 767.5c1.333.667 1.333.667 0 0z" opacity=".051"/><path fill="#263fa8" d="M544.5 767.5c1.025.397 1.192 1.063.5 2a2.428 2.428 0 0 1-.5-2z" opacity=".012"/><path fill="#118617" d="M1459.5 767.5c.54.06.88.393 1 1-.86 1.083-1.86 1.249-3 .5.92-.278 1.58-.778 2-1.5z" opacity=".051"/><path fill="#003200" d="M544.5 771.5c1.333.667 1.333.667 0 0z" opacity=".012"/><path fill="#04ed26" d="M1463.5 771.5c3.17.452 3.51 1.452 1 3-.89-.825-1.22-1.825-1-3z" opacity=".031"/><path fill="#001e00" d="M545.5 775.5c-.667-1.333-.667-1.333 0 0z" opacity=".024"/><path fill="#a499ff" d="M532.5 775.5c.997-.03 1.664.47 2 1.5a23.441 23.441 0 0 1-2 5.5c-1.075-2.311-1.075-4.644 0-7z" opacity=".004"/><path fill="#c31911" d="M548.5 773.5c-.919 2.589-2.586 4.589-5 6v-2c1-.333 1.667-1 2-2l3-2z" opacity=".153"/><path fill="#006f00" d="M528.5 783.5c1.333.667 1.333.667 0 0z" opacity=".024"/><path fill="#399d00" d="M1482.5 783.5c1.18-.219 2.18.114 3 1-1.55 1.298-2.55.965-3-1z" opacity=".004"/><path fill="#ad592c" d="M543.5 777.5v2a26.584 26.584 0 0 1-8 9 353.935 353.935 0 0 1 6.5-12c.383.556.883.889 1.5 1z" opacity=".22"/><path fill="#367b01" d="M1473.5 783.5c2.19.011 3.02 1.011 2.5 3-1.42-.578-2.25-1.578-2.5-3z" opacity=".051"/><path fill="#184d0c" d="M528.5 784.5a2.428 2.428 0 0 1-.5 2c-.692-.937-.525-1.603.5-2z" opacity=".024"/><path fill="#733c00" d="M529.5 786.5c1.837.139 2.17.806 1 2-.798-.457-1.131-1.124-1-2z" opacity=".02"/><path fill="#c64f1a" d="M1462.5 778.5c4.1 2.765 7.1 6.432 9 11a70.098 70.098 0 0 1-9-11z" opacity=".212"/><path fill="#35b500" d="M1482.5 793.5c-1.93-1.263-3.6-2.93-5-5 .86-1.083 1.86-1.249 3-.5a18.289 18.289 0 0 1 2 5.5z" opacity=".051"/><path fill="#00ff61" d="M1482.5 793.5c1.33.667 1.33.667 0 0z" opacity=".008"/><path fill="#a75016" d="M535.5 788.5a205.748 205.748 0 0 1-15 19v-2c3.913-6.582 8.913-12.249 15-17z" opacity=".298"/><path fill="#b93318" d="M1472.5 789.5a39.805 39.805 0 0 1 9 12 58.772 58.772 0 0 1-7.5-8 10.164 10.164 0 0 1-1.5-4z" opacity=".078"/><path fill="#003" d="M1484.5 800.5c-.67-1.333-.67-1.333 0 0z" opacity=".027"/><path fill="#003" d="M1484.5 800.5c1.33.667 1.33.667 0 0z" opacity=".031"/><path fill="#009700" d="M1484.5 801.5c-.67.667-.67.667 0 0z" opacity=".004"/><path fill="#1eac01" d="M520.5 805.5h-4c1.685-5.063 3.019-5.063 4 0z" opacity=".071"/><path fill="#c99700" d="M1492.5 804.5c.4-1.025 1.06-1.192 2-.5-.59.464-1.26.631-2 .5z" opacity=".004"/><path fill="#009700" d="M516.5 805.5c-.667.667-.667.667 0 0z" opacity=".004"/><path fill="#008300" d="M515.5 806.5a2.428 2.428 0 0 1-.5 2c-.692-.937-.525-1.603.5-2z" opacity=".035"/><path fill="#003200" d="M513.5 811.5a2.428 2.428 0 0 1 .5-2c.692.937.525 1.603-.5 2z" opacity=".012"/><path fill="#b05c23" d="M1481.5 801.5c.67.333 1.33.667 2 1a85.31 85.31 0 0 0 7.5 8 15.495 15.495 0 0 1 2.5 7c-4-5.325-8-10.658-12-16z" opacity=".082"/><path fill="#002500" d="M513.5 811.5c-.667.667-.667.667 0 0z" opacity=".078"/><path fill="#00ff61" d="M1498.5 815.5c1.33.667 1.33.667 0 0z" opacity=".008"/><path fill="#12be24" d="M504.5 816.5c1.455-.43 2.788-.43 4 0-1.125 2.294-2.459 2.294-4 0z" opacity=".051"/><path fill="#ca4c21" d="M514.5 814.5c.438-.065.772.101 1 .5a81.338 81.338 0 0 0-5 5.5v-2c.893-1.797 2.226-3.13 4-4z" opacity=".145"/><path fill="#fffefe" d="M817.5 815.5c103.438-2.257 193.1 31.243 269 100.5 67.25 66.016 106.09 146.18 116.5 240.5-.14 93.33-.3 186.67-.5 280-51.68.83-100.01-11.34-145-36.5-51.36-32.71-86.194-78.21-104.5-136.5a338.447 338.447 0 0 1-12-56c2.447-107.61-40.053-192.11-127.5-253.5-62.882-39.261-130.882-51.595-204-37-12.08 2.689-24.08 5.356-36 8 68.181-65.357 149.515-101.857 244-109.5z"/><path fill="#9a5718" d="M1493.5 817.5c2.5.629 3.83 2.296 4 5-2.04-1.079-3.38-2.746-4-5z" opacity=".024"/><path fill="#6e9c47" d="M510.5 818.5v2c-.356 1.69-1.356 2.69-3 3 .689-1.207.855-2.541.5-4 .671-.752 1.504-1.086 2.5-1z" opacity=".039"/><path fill="#be5e1a" d="M1500.5 826.5h3c-.25 3.005 1.08 4.838 4 5.5-.46.414-.79.914-1 1.5a12.768 12.768 0 0 1 3 6 88.436 88.436 0 0 1-9-13z" opacity=".027"/><path fill="#917607" d="M506.5 824.5c.009 1.808-.491 3.475-1.5 5a869.477 869.477 0 0 0-33.5 51 12.93 12.93 0 0 1 .5-5 248.2 248.2 0 0 0 20-32 219.87 219.87 0 0 1 10-13l1-5 1 2c.377-1.442 1.21-2.442 2.5-3z" opacity=".004"/><path fill="#c99700" d="M490.5 835.5c1.333.667 1.333.667 0 0z" opacity=".004"/><path fill="#003" d="M1509.5 835.5c1.33.667 1.33.667 0 0z" opacity=".008"/><path fill="#609800" d="M1515.5 834.5c1.21 1.676.71 3.01-1.5 4-.3-1.566.2-2.899 1.5-4z" opacity=".012"/><path fill="#009700" d="M483.5 840.5c1.025.397 1.192 1.063.5 2a2.428 2.428 0 0 1-.5-2z" opacity=".004"/><path fill="#009700" d="M1516.5 842.5c-.67-1.333-.67-1.333 0 0z" opacity=".012"/><path fill="#ff4708" d="M1516.5 842.5c1.03.397 1.19 1.063.5 2-.46-.594-.63-1.261-.5-2z" opacity=".035"/><path fill="#009b00" d="M1517.5 845.5c2.5.011 2.67.678.5 2-.46-.594-.63-1.261-.5-2z" opacity=".004"/><path fill="#a75b13" d="M1514.5 844.5a64.445 64.445 0 0 0 11 15c-.96 1.312-.79 2.646.5 4 1.52 1.522 3.02 3.022 4.5 4.5-1.08 1.455-1.08 2.955 0 4.5a844.337 844.337 0 0 1-18-27.5 2.424 2.424 0 0 1 2-.5z" opacity=".204"/><path fill="#44d418" d="M475.5 866.5c-3.575-.707-3.742-1.707-.5-3 1.683.676 1.85 1.676.5 3z" opacity=".016"/><path fill="#960032" d="M475.5 866.5c1.333.667 1.333.667 0 0z" opacity=".008"/><path fill="#006500" d="M1532.5 869.5c1.33.667 1.33.667 0 0z" opacity=".02"/><path fill="#009700" d="M1533.5 871.5c1.33.667 1.33.667 0 0z" opacity=".02"/><path fill="#00fc00" d="M1534.5 873.5c1.33.667 1.33.667 0 0z" opacity=".02"/><path fill="#c65944" d="M1530.5 872.5c1.43.381 2.26 1.381 2.5 3 .38-.556.88-.889 1.5-1 .19 2.83.86 5.496 2 8a37.79 37.79 0 0 1-6-10z" opacity=".059"/><path fill="#009700" d="M1541.5 879.5c1.33.667 1.33.667 0 0z" opacity=".004"/><path fill="#00fc00" d="M1541.5 880.5c-.67.667-.67.667 0 0z" opacity=".012"/><path fill="#15281b" d="M468.5 882.5c-1.585-.502-2.085-1.502-1.5-3 1.039.744 1.539 1.744 1.5 3z" opacity=".027"/><path fill="#dd5138" d="M471.5 880.5c-.16 1.653-.826 2.986-2 4v-2c.333-1 1-1.667 2-2z" opacity=".125"/><path fill="#003200" d="M1537.5 881.5c1.33.667 1.33.667 0 0z" opacity=".012"/><path fill="#d58c3f" d="M1536.5 882.5h1c1.47 1.279 2.13 2.946 2 5-1.39-1.399-2.39-3.066-3-5z" opacity=".098"/><path fill="#378e00" d="M468.5 882.5h1v2c-.333 1-1 1.667-2 2l1-4z" opacity=".098"/><path fill="#dd4d27" d="M1539.5 887.5c2.37 2.079 3.71 4.746 4 8-1.84-2.349-3.17-5.015-4-8z" opacity=".157"/><path fill="#cc6522" d="M466.5 889.5a42.494 42.494 0 0 1-5.5 11 2.428 2.428 0 0 1-.5-2c1.831-2.345 2.998-5.012 3.5-8 .671-.752 1.504-1.086 2.5-1z" opacity=".114"/><path fill="#888eff" d="M1549.5 895.5c-3.07-.463-3.57-1.796-1.5-4 .41 1.401.91 2.734 1.5 4z" opacity=".024"/><path fill="#009700" d="M454.5 896.5c1.333.667 1.333.667 0 0z" opacity=".004"/><path fill="#6f9eff" d="M1549.5 895.5c1.58.502 2.08 1.502 1.5 3-1.04-.744-1.54-1.744-1.5-3z" opacity=".012"/><path fill="#a05c11" d="M1543.5 895.5c2.82 2.201 4.49 5.201 5 9-2.03-2.72-3.69-5.72-5-9z" opacity=".118"/><path fill="#00000d" d="M1549.5 903.5c1.33.667 1.33.667 0 0z" opacity=".027"/><path fill="#d36c26" d="M459.5 901.5c-.542 3.412-1.875 6.412-4 9 .002-3.665 1.335-6.665 4-9z" opacity=".122"/><path fill="#00d400" d="M1565.5 911.5c1.84.704 2.34 2.037 1.5 4-1.19-1.063-1.69-2.397-1.5-4z" opacity=".024"/><path fill="#a7690d" d="M455.5 910.5c-1.587 5.132-3.921 9.798-7 14-.703-1.534-.536-3.201.5-5a39.511 39.511 0 0 1 6.5-9z" opacity=".098"/><path fill="#b75b21" d="M1548.5 904.5h1a590.128 590.128 0 0 1 18 35.5c-.56.383-.89.883-1 1.5a955.342 955.342 0 0 1-18-37z" opacity=".098"/><path fill="#002400" d="M441.5 927.5c1.333.667 1.333.667 0 0z" opacity=".035"/><path fill="#d83b3c" d="M448.5 924.5c.098 2.053-.569 3.72-2 5-.098-2.053.569-3.72 2-5z" opacity=".11"/><path fill="#003200" d="M441.5 928.5c-.667.667-.667.667 0 0z" opacity=".012"/><path fill="#837c04" d="M446.5 929.5c-.16 1.653-.826 2.986-2 4h-1a76.734 76.734 0 0 0 1-6 31.147 31.147 0 0 0 2 2z" opacity=".082"/><path fill="#00a300" d="M439.5 935.5c.107 1.879-.393 2.212-1.5 1-1.187-1.544-1.52-3.211-1-5 .608 1.566 1.442 2.9 2.5 4z" opacity=".004"/><path fill="#003200" d="M439.5 934.5c1.333.667 1.333.667 0 0z" opacity=".02"/><path fill="#b13928" d="M443.5 933.5h1c-.542 3.412-1.875 6.412-4 9 .147-3.292 1.147-6.292 3-9z" opacity=".043"/><path fill="#22d31d" d="M433.5 937.5c4.203 2.345 4.536 5.012 1 8-.15-2.466-.483-5.132-1-8z" opacity=".078"/><path fill="#009700" d="M1578.5 945.5c.4-1.025 1.06-1.192 2-.5-.59.464-1.26.631-2 .5z" opacity=".004"/><path fill="#336c00" d="M1570.5 944.5c.89-1.276 1.89-1.276 3 0-1.05 2.545-2.05 2.545-3 0z" opacity=".024"/><path fill="#003200" d="M433.5 946.5c1.333.667 1.333.667 0 0z" opacity=".012"/><path fill="#789f17" d="M438.5 947.5a16.339 16.339 0 0 1-2 5h-1c-.241-2.534.759-4.2 3-5z" opacity=".082"/><path fill="#ba6219" d="M1566.5 942.5c1.32 1.257 2.65 2.591 4 4 .51 2.962 1.51 5.629 3 8v3c-2.9-4.667-5.23-9.667-7-15z" opacity=".227"/><path fill="#518f08" d="M1573.5 954.5c.99 2.624 1.99 5.29 3 8-2.23-.901-3.23-2.567-3-5v-3z" opacity=".051"/><path fill="#865e0b" d="M435.5 952.5h1a115.763 115.763 0 0 0-6.5 18c-.377 1.442-1.21 2.442-2.5 3a50.445 50.445 0 0 0 3.5-13c.5-1.167 1.333-2 2.5-2.5-.725-2.18-.059-4.014 2-5.5z" opacity=".373"/><path fill="#009700" d="M1582.5 966.5c1.33.667 1.33.667 0 0zm0 1c-.67.667-.67.667 0 0z" opacity=".004"/><path fill="#b36023" d="M1581.5 978.5c-2.46-3.944-4.13-8.277-5-13 2.01-1.179 2.34-.679 1 1.5 2.63 3.342 3.96 7.176 4 11.5z" opacity=".157"/><path fill="#37af00" d="M415.5 971.5c2.329 2.496 2.496 5.163.5 8a32.462 32.462 0 0 1-.5-8z" opacity=".024"/><path fill="#28b300" d="M421.5 965.5a199.255 199.255 0 0 1 4 10.5c-1.393 2.683-2.726 2.85-4 .5.579-3.596.579-7.263 0-11z" opacity=".024"/><path fill="#009700" d="M1584.5 975.5c1.03.397 1.19 1.063.5 2-.46-.594-.63-1.261-.5-2z" opacity=".004"/><path fill="#cb3f42" d="M427.5 974.5c-.19 3.355-1.19 6.355-3 9-.355-3.577.645-6.577 3-9z" opacity=".082"/><path fill="#c99700" d="M1592.5 982.5c1.03.397 1.19 1.063.5 2-.46-.594-.63-1.261-.5-2z" opacity=".004"/><path fill="#003" d="M416.5 983.5c1.333.667 1.333.667 0 0z" opacity=".008"/><path fill="#c0531c" d="M1581.5 978.5c2.43 4.029 4.77 8.195 7 12.5-.92.278-1.58.778-2 1.5-2.43-4.299-4.1-8.965-5-14z" opacity=".075"/><path fill="#bd5500" d="M424.5 984.5c-.296 1.903-.963 3.57-2 5-1.298-2.409-.631-4.075 2-5z" opacity=".114"/><path fill="#d75930" d="M670.5 986.5c7.563-.272 14.897.395 22 2a182.878 182.878 0 0 0-13 0c-3.14-.589-6.14-1.256-9-2z" opacity=".118"/><path fill="#cf331a" d="M656.5 986.5c-6.074 1.748-12.407 2.415-19 2 6.105-1.496 12.438-2.163 19-2z" opacity=".035"/><path fill="#ea4a19" d="M637.5 988.5c-2.977 1.21-6.144 2.21-9.5 3-.765-.07-1.265-.403-1.5-1 3.409-1.403 7.075-2.07 11-2z" opacity=".02"/><path fill="#bf6204" d="M693.5 988.5c5.704.507 11.371 1.34 17 2.5 1.843.159 2.509.659 2 1.5-6.579-.789-12.913-2.122-19-4z" opacity=".078"/><path fill="#009700" d="M672.5 990.5c1.333.667 1.333.667 0 0z" opacity=".012"/><path fill="#6a7200" d="M419.5 993.5c-1.837-.139-2.17-.806-1-2 .798.457 1.131 1.124 1 2z" opacity=".02"/><path fill="#e4571b" d="M625.5 990.5c-2.402 1.493-5.069 2.493-8 3 2.022-2.193 4.689-3.193 8-3z" opacity=".11"/><path fill="#6eacff" d="M1593.5 991.5c1.84.139 2.17.806 1 2-.8-.457-1.13-1.124-1-2z" opacity=".012"/><path fill="#9f5c1a" d="M721.5 994.5c-2.41.938-4.744.938-7 0-.03-.997.47-1.664 1.5-2 2.03.454 3.863 1.12 5.5 2z" opacity=".129"/><path fill="#aa2618" d="M422.5 989.5c-.233 3.042-1.233 5.708-3 8-.905-1.464-.905-2.798 0-4l3-4z" opacity=".082"/><path fill="#aa440d" d="M1586.5 992.5c3.06 4.473 4.73 9.47 5 15-2.47-4.64-4.14-9.64-5-15z" opacity=".035"/><path fill="#d4651d" d="M615.5 993.5c-4.422 1.751-9.089 3.084-14 4 4.051-2.109 8.384-3.776 13-5 .607.124.94.457 1 1z" opacity=".129"/><path fill="#3c5d00" d="M719.5 998.5c1.101-1.098 2.434-1.265 4-.5a8.43 8.43 0 0 1-4 .5z" opacity=".075"/><path fill="#dc341b" d="M728.5 997.5c.06-.543.393-.876 1-1 1.526.494 2.859 1.161 4 2-1.792.134-3.458-.199-5-1z" opacity=".071"/><path fill="#7e7b09" d="M601.5 997.5c-3.018 1.9-6.351 3.23-10 4-1.238-.31-1.238-.81 0-1.5a163.198 163.198 0 0 1 10-2.5z" opacity=".09"/><path fill="#2fd810" d="M608.5 998.5c1.984-.117 3.65.55 5 2-3.284 1.16-6.618 1.32-10 .5a38.79 38.79 0 0 1 5-2.5z" opacity=".037"/><path fill="#b698ff" d="M710.5 1001.5c1.349-1.3 2.682-1.13 4 .5-1.428.58-2.762.41-4-.5z" opacity=".004"/><path fill="#24e200" d="M735.5 1003.5c-1.175.22-2.175-.11-3-1 1.552-1.3 2.552-.96 3 1z" opacity=".012"/><path fill="#07ec47" d="M716.5 1003.5c2.017-1.37 4.017-1.21 6 .5-2.045.49-4.045.32-6-.5z" opacity=".01"/><path fill="#9c5117" d="M738.5 1000.5c4.517.6 8.517 2.26 12 5-4.732-.13-8.732-1.79-12-5z" opacity=".259"/><path fill="#c65326" d="M419.5 997.5a213.44 213.44 0 0 1-9 31v-1c2.088-10.37 5.088-20.37 9-30z" opacity=".071"/><path fill="#b16426" d="M589.5 1002.5c-1.614 1.57-3.614 2.24-6 2 1.816-1.94 3.816-2.61 6-2z" opacity=".024"/><path fill="#009700" d="M597.5 1004.5c.397-1.03 1.063-1.19 2-.5-.594.46-1.261.63-2 .5z" opacity=".012"/><path fill="#07e035" d="M735.5 1003.5c3.297-.17 3.631.5 1 2-.798-.46-1.131-1.12-1-2z" opacity=".008"/><path fill="#b86703" d="M582.5 1005.5c-1.676 2.33-4.009 3.33-7 3a568.04 568.04 0 0 1 6-4c.607.12.94.46 1 1z" opacity=".114"/><path fill="#05d642" d="M606.5 1007.5c1.446-1.11 3.113-1.28 5-.5-1.634.49-3.301.66-5 .5z" opacity=".008"/><path fill="#00b700" d="M1598.5 1010.5c-1.03-.4-1.19-1.06-.5-2 .46.59.63 1.26.5 2z" opacity=".004"/><path fill="#ff2aca" d="M753.5 1011.5c.342-.84 1.008-1.17 2-1-.342.84-1.008 1.17-2 1z" opacity=".02"/><path fill="#008a00" d="M1598.5 1010.5c1.07.75 1.24 1.75.5 3-.48-.95-.65-1.95-.5-3z" opacity=".008"/><path fill="#af4f26" d="M575.5 1008.5c-3.221 2.78-6.888 4.78-11 6 3.178-2.76 6.845-4.76 11-6z" opacity=".125"/><path fill="#b62500" d="M753.5 1011.5c-.397 1.03-1.063 1.19-2 .5.594-.46 1.261-.63 2-.5z" opacity=".02"/><path fill="#aa6923" d="M750.5 1005.5c8.454 3.06 16.12 7.39 23 13a20.643 20.643 0 0 0-5-1c-2.893-2.13-5.893-4.3-9-6.5a8.394 8.394 0 0 0-4-.5c.111-.62.444-1.12 1-1.5-2.652-.35-4.652-1.52-6-3.5z" opacity=".02"/><path fill="#11bd00" d="M569.5 1014.5c1.256-.04 2.256.46 3 1.5-1.43 1.44-3.097 1.77-5 1 .881-.71 1.547-1.54 2-2.5z" opacity=".051"/><path fill="#04fe58" d="M755.5 1018.5c1.289-2.82 3.289-3.49 6-2-1.673 1.59-3.673 2.25-6 2z" opacity=".013"/><path fill="#003200" d="M768.5 1017.5c-.667.67-.667.67 0 0z" opacity=".012"/><path fill="#009700" d="M564.5 1019.5c.397-1.03 1.063-1.19 2-.5-.594.46-1.261.63-2 .5z" opacity=".008"/><path fill="#47a8ff" d="M755.5 1018.5c-.814 1.77-2.148 2.27-4 1.5 1.063-1.19 2.397-1.69 4-1.5z" opacity=".004"/><path fill="#34dc28" d="M406.5 1018.5c.839 1.14 1.506 2.47 2 4-.825.89-1.825 1.22-3 1-.134-1.79.199-3.46 1-5z" opacity=".012"/><path fill="#6b9417" d="M774.5 1019.5c.992-.17 1.658.16 2 1v1c-1.333 0-2-.67-2-2z" opacity=".165"/><path fill="#328a01" d="M564.5 1019.5c-1.165 1.92-2.832 2.75-5 2.5 1.41-1.37 3.077-2.21 5-2.5z" opacity=".024"/><path fill="#003" d="M767.5 1020.5c1.333.67 1.333.67 0 0z" opacity=".027"/><path fill="#bd7116" d="M559.5 1017.5c-1.391 2.39-3.391 4.06-6 5 1.365-2.36 3.365-4.03 6-5z" opacity=".004"/><path fill="#8699ff" d="M568.5 1021.5c1.175-.22 2.175.11 3 1-1.223 1.11-2.556 1.28-4 .5.556-.38.889-.88 1-1.5z" opacity=".012"/><path fill="#eb5438" d="M776.5 1021.5v-1c1.527-.07 2.527.59 3 2-1.109-.06-2.109-.39-3-1z" opacity=".137"/><path fill="#b84108" d="M1595.5 1018.5c.96 1.76 1.29 3.76 1 6-1.65-1.9-1.98-3.9-1-6z" opacity=".075"/><path fill="#649700" d="M772.5 1022.5c1.333.67 1.333.67 0 0z" opacity=".012"/><path fill="#009700" d="M554.5 1026.5c1.073.75 1.24 1.75.5 3a4.939 4.939 0 0 1-.5-3z" opacity=".004"/><path fill="#b56917" d="M783.5 1025.5a45.463 45.463 0 0 1 10 8c-2.944-1.81-5.944-3.64-9-5.5-.752-.67-1.086-1.5-1-2.5z" opacity=".035"/><path fill="#b7612f" d="M552.5 1022.5c-2.809 4.42-6.809 7.42-12 9a39.805 39.805 0 0 1 12-9z" opacity=".059"/><path fill="#009700" d="M783.5 1029.5c1.333.67 1.333.67 0 0z" opacity=".004"/><path fill="#4aa70a" d="M410.5 1027.5v1l-2 8h-1c-.575-3.65.425-6.65 3-9z" opacity=".09"/><path fill="#955c2f" d="M793.5 1033.5c2.589.92 4.589 2.59 6 5-1.347-.67-2.514-.67-3.5 0-.366-1.95-1.199-3.62-2.5-5z" opacity=".267"/><path fill="#2bc300" d="M786.5 1034.5h3v3h-3v-3z" opacity=".051"/><path fill="#b2642d" d="M537.5 1034.5c-2.393 2.24-4.227 4.9-5.5 8a11.165 11.165 0 0 1-4.5 3c-.333-1.33-.667-1.33-1 0-1 .67-2 1.33-3 2 .011-1.52.677-2.68 2-3.5 3.894-3.4 7.894-6.57 12-9.5z" opacity=".02"/><path fill="#00ff61" d="M1608.5 1039.5c1.03.4 1.19 1.06.5 2-.46-.59-.63-1.26-.5-2z" opacity=".008"/><path fill="#05fd2c" d="M1614.5 1039.5c1.1 1.1 1.26 2.43.5 4a8.394 8.394 0 0 1-.5-4z" opacity=".027"/><path fill="#a47110" d="M407.5 1036.5h1a570.72 570.72 0 0 1-8 36c.119-7.52 1.452-15.02 4-22.5a3.947 3.947 0 0 0-1-2 83.704 83.704 0 0 0 4-11.5z" opacity=".129"/><path fill="#aa5b25" d="M1596.5 1024.5c2.24 4.72 3.91 9.72 5 15v5c-1.65-6.56-3.32-13.22-5-20z" opacity=".192"/><path fill="#003" d="M526.5 1045.5h1c-.185.67-.519.67-1 0z" opacity=".008"/><path fill="#7d8000" d="M1601.5 1039.5c1.09.12 1.75.79 2 2-.74 2.59-.74 5.26 0 8h-1c-.54-1.62-.87-3.28-1-5v-5z" opacity=".129"/><path fill="#009700" d="M807.5 1050.5c-.667.67-.667.67 0 0z" opacity=".004"/><path fill="#99752a" d="M801.5 1040.5c6.329 5.5 12.163 11.5 17.5 18 .692.94.525 1.6-.5 2h-1c-.342-.84-1.008-1.17-2-1 .303-3.09-1.03-4.75-4-5-.394-2.21-1.727-3.54-4-4 .111-.62.444-1.12 1-1.5-2.995-2.48-5.328-5.31-7-8.5z" opacity=".118"/><path fill="#dc543e" d="M1602.5 1049.5h1c.96 1.76 1.29 3.76 1 6-1.24-1.71-1.91-3.71-2-6z" opacity=".106"/><path fill="#00be00" d="M526.5 1052.5c1.213 1 1.046 2-.5 3-.47-1.08-.303-2.08.5-3z" opacity=".063"/><path fill="#009700" d="M802.5 1053.5c1.025.4 1.192 1.06.5 2a2.424 2.424 0 0 1-.5-2z" opacity=".004"/><path fill="#0000a4" d="M808.5 1053.5c1.333.67 1.333.67 0 0z" opacity=".027"/><path fill="#003" d="M811.5 1054.5c-.667.67-.667.67 0 0z" opacity=".008"/><path fill="#6fbb2f" d="M1608.5 1052.5c1.83.64 2.17 1.64 1 3-.89-.82-1.22-1.82-1-3z" opacity=".008"/><path fill="#d3593e" d="M519.5 1051.5c-2.125 5.24-5.458 9.58-10 13-.438.07-.772-.1-1-.5 3.532-4.36 7.199-8.53 11-12.5z" opacity=".043"/><path fill="#16ca00" d="M815.5 1059.5c.992-.17 1.658.16 2 1-1.123 1.26-1.789.92-2-1z" opacity=".012"/><path fill="#5d400d" d="M1604.5 1055.5c.89.76 1.56 1.76 2 3-1.04 1.63-1.04 3.3 0 5-.07 1.53.59 2.53 2 3-.61.89-.94 1.89-1 3-2.46-4.24-3.46-8.9-3-14z" opacity=".647"/><path fill="#008c00" d="M1610.5 1076.5h-1c.85-4.72 2.01-9.39 3.5-14-.13 4.87-.97 9.53-2.5 14z" opacity=".006"/><path fill="#1ef82e" d="M1606.5 1063.5c1.55.32 2.21 1.32 2 3-1.41-.47-2.07-1.47-2-3z" opacity=".012"/><path fill="#b2552a" d="M828.5 1075.5c-.558-2.09-1.891-3.59-4-4.5.333-.33.667-.67 1-1-1-1.67-2.333-3-4-4 .333-.33.667-.67 1-1-.881-.71-1.547-1.54-2-2.5-.065-.44.101-.77.5-1a90.826 90.826 0 0 1 9.5 12.5c-.544.72-1.211 1.22-2 1.5z" opacity=".059"/><path fill="#003" d="M508.5 1067.5c1.333.67 1.333.67 0 0z" opacity=".008"/><path fill="#000051" d="M509.5 1069.5c1.333.67 1.333.67 0 0z" opacity=".031"/><path fill="#003" d="M509.5 1070.5v1c-.67-.48-.67-.81 0-1z" opacity=".031"/><path fill="#00c800" d="M509.5 1071.5c.789.28 1.456.78 2 1.5-1.316.53-1.983.03-2-1.5z" opacity=".012"/><path fill="#009700" d="M819.5 1072.5c1.025.4 1.192 1.06.5 2a2.424 2.424 0 0 1-.5-2z" opacity=".004"/><path fill="#a06f00" d="M508.5 1065.5c-3.54 5.78-7.54 11.11-12 16a89.215 89.215 0 0 1 9.5-15c.671-.75 1.504-1.09 2.5-1z" opacity=".09"/><path fill="#2bd109" d="M504.5 1075.5h3c.256 2.41-.744 4.08-3 5-1.166-1.67-1.166-3.33 0-5z" opacity=".024"/><path fill="#5899ff" d="M820.5 1076.5c1.773.81 2.273 2.15 1.5 4-1.188-1.06-1.688-2.4-1.5-4z" opacity=".004"/><path fill="#ea481c" d="M400.5 1074.5c.08 3.28-.587 6.28-2 9-.432-3.38.235-6.38 2-9z" opacity=".082"/><path fill="#b64922" d="M1608.5 1076.5h2c-.29 3.52-.29 7.18 0 11-1.19-3.45-1.85-7.11-2-11z" opacity=".208"/><path fill="#af821d" d="M835.5 1083.5c-2.043-1.08-3.376-2.75-4-5-.304-.65-.637-1.32-1-2 .346-1.2.846-1.2 1.5 0a17.36 17.36 0 0 1 3.5 7z" opacity=".133"/><path fill="#00ff61" d="M510.5 1081.5c1.333.67 1.333.67 0 0z" opacity=".008"/><path fill="#ff3e02" d="M393.5 1083.5c1.073.75 1.24 1.75.5 3a4.939 4.939 0 0 1-.5-3z" opacity=".012"/><path fill="#009700" d="M396.5 1083.5c1.333.67 1.333.67 0 0z" opacity=".004"/><path fill="#759d24" d="M496.5 1081.5c.418.72 1.084 1.22 2 1.5-1.997 1.19-3.664 2.69-5 4.5.154-2.47 1.154-4.47 3-6z" opacity=".094"/><path fill="#083000" d="M499.5 1084.5c1.273.58 1.273 1.24 0 2-.963-.47-.963-1.14 0-2z" opacity=".02"/><path fill="#009700" d="M506.5 1085.5c1.025.4 1.192 1.06.5 2a2.424 2.424 0 0 1-.5-2z" opacity=".004"/><path fill="#35b2ff" d="M832.5 1086.5c1.333.67 1.333.67 0 0z" opacity=".039"/><path fill="#00ff61" d="M834.5 1088.5c1.333.67 1.333.67 0 0z" opacity=".02"/><path fill="#df2321" d="M492.5 1087.5c.271 1.88-.396 3.21-2 4 .16-1.65.826-2.99 2-4z" opacity=".075"/><path fill="#003200" d="M493.5 1090.5c1.025.4 1.192 1.06.5 2a2.424 2.424 0 0 1-.5-2z" opacity=".012"/><path fill="#c0900a" d="M838.5 1089.5c1.406.47 2.073 1.47 2 3-.722 1.05-1.722 1.72-3 2 .801-1.54 1.134-3.21 1-5z" opacity=".012"/><path fill="#009700" d="M491.5 1092.5c1.333.67 1.333.67 0 0z" opacity=".004"/><path fill="#003200" d="M392.5 1094.5c1.333.67 1.333.67 0 0z" opacity=".012"/><path fill="#4fabff" d="M837.5 1094.5c.489 3.33-.178 3.49-2 .5.594-.46 1.261-.63 2-.5z" opacity=".004"/><path fill="#b75c07" d="M398.5 1086.5a653.103 653.103 0 0 1-4 27 91.282 91.282 0 0 1 2-23.5 11.242 11.242 0 0 0-1-3.5c.925-1.06 1.925-1.06 3 0z" opacity=".082"/><path fill="#c99700" d="M490.5 1096.5c1.333.67 1.333.67 0 0z" opacity=".004"/><path fill="#009700" d="M392.5 1098.5c1.073.75 1.24 1.75.5 3a4.939 4.939 0 0 1-.5-3z" opacity=".004"/><path fill="#b95310" d="M842.5 1095.5a90.813 90.813 0 0 1 4 7.5c-.228.4-.562.57-1 .5-1.767-2.29-2.767-4.96-3-8z" opacity=".137"/><path fill="#003200" d="M485.5 1102.5c1.333.67 1.333.67 0 0z" opacity=".02"/><path fill="#00c600" d="M839.5 1101.5c1.025.4 1.192 1.06.5 2a2.424 2.424 0 0 1-.5-2z" opacity=".02"/><path fill="#e13911" d="M1612.5 1102.5c.77.76 1.27 1.76 1.5 3 .5 3.65.67 7.32.5 11-1.02-4.48-1.69-9.15-2-14z" opacity=".035"/><path fill="#02fe5b" d="M489.5 1107.5c1.699-.16 3.366.01 5 .5-2.085 2.14-3.751 1.97-5-.5z" opacity=".02"/><path fill="#ca6329" d="M483.5 1103.5c-.017 2.06-.35 4.06-1 6-.667.33-1.333.67-2 1a33.458 33.458 0 0 1 3-7z" opacity=".102"/><path fill="#4e9c09" d="M484.5 1102.5c0 .67.333 1 1 1-.412 2.39-1.412 4.39-3 6 .65-1.94.983-3.94 1-6 0-.67.333-1 1-1z" opacity=".051"/><path fill="#d93a1f" d="M846.5 1104.5c2.236 2.07 2.903 4.41 2 7-1.433-2.06-2.1-4.39-2-7z" opacity=".129"/><path fill="#01a50b" d="M539.5 1111.5c4.6-.15 4.933.51 1 2-2.221.06-2.554-.61-1-2z" opacity=".035"/><path fill="#231701" d="M487.5 1115.5c-.739.13-1.406-.04-2-.5.937-.69 1.603-.53 2 .5z" opacity=".035"/><path fill="#a75c02" d="M529.5 1116.5a290.22 290.22 0 0 1-34-1c8.818-.6 17.652-.94 26.5-1 2.708.37 5.208 1.03 7.5 2z" opacity=".196"/><path fill="#b34f18" d="M480.5 1110.5a51.682 51.682 0 0 1-1 7c2.873-.3 5.539-.97 8-2 1.617.54 3.284.87 5 1-5.121 1.47-10.454 1.97-16 1.5.966-2.77 2.299-5.27 4-7.5z" opacity=".224"/><path fill="#b75f02" d="M554.5 1121.5c-8.438-1.77-16.771-3.44-25-5 1.56-.02 3.06-.35 4.5-1 7.111 1.53 13.944 3.53 20.5 6z" opacity=".098"/><path fill="#00d600" d="M847.5 1116.5c1.098 1.1 1.265 2.43.5 4a8.43 8.43 0 0 1-.5-4z" opacity=".059"/><path fill="#5885ff" d="M849.5 1119.5c1.333.67 1.333.67 0 0z" opacity=".055"/><path fill="#00000d" d="M566.5 1120.5c1.333.67 1.333.67 0 0z" opacity=".027"/><path fill="#bd4a34" d="M394.5 1113.5c-.086 6.54-.753 12.87-2 19 .268-1.6-.066-2.93-1-4v-1a96.756 96.756 0 0 0 2-6.5c-1.091-2.06-1.258-4.23-.5-6.5.383-.56.883-.89 1.5-1z" opacity=".212"/><path fill="#ff7303" d="M563.5 1122.5c.397-1.03 1.063-1.19 2-.5-.594.46-1.261.63-2 .5z" opacity=".004"/><path fill="#00ff61" d="M576.5 1121.5c1.333.67 1.333.67 0 0z" opacity=".008"/><path fill="#726c11" d="M554.5 1121.5c2.652-.09 4.985.58 7 2-2.652.09-4.985-.58-7-2z" opacity=".306"/><path fill="#a7540e" d="M851.5 1116.5c3.509 6.86 5.842 14.2 7 22-3.241-6.94-5.575-14.27-7-22z" opacity=".165"/><path fill="#a75e40" d="M567.5 1124.5c.131.74-.036 1.41-.5 2-2.058-.73-3.891-1.73-5.5-3 1.644-.21 3.144.12 4.5 1 .779-2.6 1.279-2.6 1.5 0z" opacity=".133"/><path fill="#8e73fe" d="M848.5 1122.5c1.395 2.35 1.228 4.68-.5 7-.334-2.35-.167-4.68.5-7z" opacity=".012"/><path fill="#00004c" d="M582.5 1128.5c1.333.67 1.333.67 0 0z" opacity=".039"/><path fill="#579500" d="M391.5 1127.5v1c-.268 1.6.066 2.93 1 4v3h-1c-1.333-2.67-1.333-5.33 0-8z" opacity=".012"/><path fill="#ff3bda" d="M585.5 1131.5c.397-1.03 1.063-1.19 2-.5-.594.46-1.261.63-2 .5z" opacity=".008"/><path fill="#06ec49" d="M850.5 1132.5c1.832.64 2.165 1.64 1 3-.886-.82-1.219-1.82-1-3z" opacity=".016"/><path fill="#916406" d="M569.5 1126.5c3.527.76 6.86 2.09 10 4a5.56 5.56 0 0 1 3-1c1.67 1.37 2.336 2.87 2 4.5a80.94 80.94 0 0 0 11 5c1.098.77 1.098 1.6 0 2.5-8.729-5.1-17.396-10.1-26-15z" opacity=".263"/><path fill="#f24411" d="M1614.5 1118.5c.62.11 1.12.44 1.5 1 .5 7.99.67 15.99.5 24a233.96 233.96 0 0 1-2-25z" opacity=".094"/><path fill="#009700" d="M853.5 1136.5c1.333.67 1.333.67 0 0z" opacity=".004"/><path fill="#008200" d="M596.5 1138.5c.397-1.03 1.063-1.19 2-.5-.594.46-1.261.63-2 .5z" opacity=".012"/><path fill="#78b2fc" d="M602.5 1139.5c2.125.87 2.291 1.87.5 3-1.683-.68-1.85-1.68-.5-3z" opacity=".024"/><path fill="#d83f1b" d="M858.5 1138.5c1.54 2.34 2.206 5 2 8-1.337-.81-2.337-1.98-3-3.5.88-1.36 1.214-2.86 1-4.5z" opacity=".09"/><path fill="#009700" d="M856.5 1148.5a4.939 4.939 0 0 1 .5-3c.74 1.25.573 2.25-.5 3z" opacity=".009"/><path fill="#009700" d="M847.5 1147.5c1.073.75 1.24 1.75.5 3a4.939 4.939 0 0 1-.5-3z" opacity=".004"/><path fill="#6b7300" d="M1616.5 1146.5h3c.28 1.91-.05 3.58-1 5-.33-2.67-.67-2.67-1 0h-1v-5z" opacity=".059"/><path fill="#00da00" d="M856.5 1148.5c.131.74-.036 1.41-.5 2-.692-.94-.525-1.6.5-2z" opacity=".02"/><path fill="#ac451e" d="M598.5 1143.5c5.313 2.15 9.646 5.48 13 10a146.885 146.885 0 0 1-13-10z" opacity=".086"/><path fill="#009700" d="M615.5 1151.5c1.333.67 1.333.67 0 0z" opacity=".004"/><path fill="#16bb25" d="M385.5 1152.5a581.55 581.55 0 0 1 4 15.5c-1.891 3.42-3.225 3.25-4-.5 1.138-4.98 1.138-9.98 0-15z" opacity=".008"/><path fill="#000700" d="M613.5 1152.5c1.333.67 1.333.67 0 0z" opacity=".035"/><path fill="#a9461f" d="M860.5 1146.5c1.618 2.67 2.285 5.67 2 9-.617.11-1.117.44-1.5 1-.187-2.39-1.02-3.56-2.5-3.5.111-1.72.611-1.89 1.5-.5.495-1.97.662-3.97.5-6z" opacity=".071"/><path fill="#009700" d="M622.5 1155.5c1.333.67 1.333.67 0 0z" opacity=".004"/><path fill="#2b8408" d="M619.5 1159.5a11.091 11.091 0 0 0-3-4.5c3.305.12 4.305 1.62 3 4.5z" opacity=".024"/><path fill="#db6612" d="M862.5 1155.5c1.117 3.79 1.783 7.79 2 12h-2c.176-3.79.176-7.79 0-12z" opacity=".098"/><path fill="#9672ff" d="M1617.5 1151.5h1c.69 5.42.69 10.75 0 16-.99-5.14-1.32-10.47-1-16z" opacity=".035"/><path fill="#c84816" d="M391.5 1135.5h1a358.18 358.18 0 0 1-1.5 37c-.383.56-.883.89-1.5 1-1.001-1.29-.834-2.62.5-4 .445-11.34.945-22.67 1.5-34z" opacity=".078"/><path fill="#808d08" d="M624.5 1169.5c-1.816-1.62-3.149-3.62-4-6 .996.09 1.829-.25 2.5-1 .163 2.18.996 4.01 2.5 5.5-.556.38-.889.88-1 1.5z" opacity=".078"/><path fill="#5cd2ff" d="M630.5 1168.5c.709-.9 1.709-1.24 3-1-.515 4.59-1.515 4.92-3 1z" opacity=".012"/><path fill="#e54c0c" d="M1616.5 1151.5h1c-.32 5.53.01 10.86 1 16 .17 66.67 0 133.33-.5 200-.21 1.56-.71 2.89-1.5 4v-220z" opacity=".094"/><path fill="#003" d="M384.5 1170.5c1.333.67 1.333.67 0 0z" opacity=".008"/><path fill="#fffdfd" d="M1477.5 1169.5c21.24 1.4 36.4 11.74 45.5 31 12.01 30.19 12.35 60.52 1 91-6.96 16.22-18.79 27.05-35.5 32.5-18.33.5-36.66.67-55 .5-.47-33.05.03-66.05 1.5-99 4.12-19.41 13.28-35.91 27.5-49.5 4.88-2.78 9.88-4.95 15-6.5z" opacity=".999"/><path fill="#757f02" d="M862.5 1167.5h2c1.43 1.95 1.097 3.62-1 5v-1l-1-4z" opacity=".231"/><path fill="#8b4210" d="M384.5 1171.5a8.43 8.43 0 0 1-.5 4c-.765-1.57-.598-2.9.5-4z" opacity=".024"/><path fill="#9b8608" d="M850.5 1170.5h3v3h-3v-3z" opacity=".051"/><path fill="#979402" d="M624.5 1169.5c2.271 2.11 3.604 4.78 4 8-.667-.33-1.333-.67-2-1a29.484 29.484 0 0 0-2-7z" opacity=".09"/><path fill="#009700" d="M638.5 1174.5c1.333.67 1.333.67 0 0z" opacity=".004"/><path fill="#274600" d="M848.5 1176.5c-.667-1.33-.667-1.33 0 0z" opacity=".024"/><path fill="#e56242" d="M863.5 1171.5v1c-3.333 4-7 7.67-11 11 2.579-4.92 6.245-8.92 11-12z" opacity=".133"/><path fill="#3a0a33" d="M848.5 1176.5c1.025.4 1.192 1.06.5 2a2.424 2.424 0 0 1-.5-2z" opacity=".008"/><path fill="#a95322" d="M387.5 1176.5c-3.003 4.67-6.003 9.34-9 14 .17-1.32-.163-2.49-1-3.5 3.545-3.38 6.878-6.88 10-10.5z" opacity=".208"/><path fill="#009700" d="M847.5 1181.5c1.333.67 1.333.67 0 0z" opacity=".004"/><path fill="#d86040" d="M626.5 1176.5c.667.33 1.333.67 2 1 .217 5.73-.283 11.4-1.5 17-.377 1.44-1.21 2.44-2.5 3 1.312-4.58 2.312-9.25 3-14-.253-2.36-.586-4.69-1-7z" opacity=".129"/><path fill="#009700" d="M632.5 1182.5c1.073.75 1.24 1.75.5 3a4.939 4.939 0 0 1-.5-3zm199 1c2.501.01 2.668.68.5 2a2.424 2.424 0 0 1-.5-2z" opacity=".004"/><path fill="#445e00" d="M844.5 1184.5c.577-1.27 1.243-1.27 2 0-.47.96-1.137.96-2 0z" opacity=".071"/><path fill="#53a600" d="M374.5 1183.5c1.175-.22 2.175.11 3 1-1.552 1.3-2.552.96-3-1z" opacity=".035"/><path fill="#e8501d" d="M852.5 1183.5a25.772 25.772 0 0 1-6 6c1-3 3-5 6-6z" opacity=".157"/><path fill="#003" d="M844.5 1187.5c1.333.67 1.333.67 0 0z" opacity=".008"/><path fill="#49b110" d="M834.5 1186.5c2.09-.05 3.423.95 4 3-2.557 1.03-3.891.03-4-3z" opacity=".051"/><path fill="#c99700" d="M373.5 1190.5c1.333.67 1.333.67 0 0z" opacity=".004"/><path fill="#009700" d="M638.5 1191.5c1.333.67 1.333.67 0 0z" opacity=".004"/><path fill="#003200" d="M367.5 1194.5c1.333.67 1.333.67 0 0z" opacity=".02"/><path fill="#df5b23" d="M846.5 1189.5a57.768 57.768 0 0 1-9 9v-2a44.982 44.982 0 0 1 9-7z" opacity=".141"/><path fill="#009700" d="M372.5 1195.5c1.333.67 1.333.67 0 0z" opacity=".004"/><path fill="#003" d="M837.5 1196.5c-.667-1.33-.667-1.33 0 0z" opacity=".012"/><path fill="#33ca00" d="M370.5 1198.5c-.667-1.33-.667-1.33 0 0z" opacity=".02"/><path fill="#6698ff" d="M631.5 1196.5c2.26.74 2.427 1.74.5 3a4.939 4.939 0 0 1-.5-3z" opacity=".012"/><path fill="#265100" d="M832.5 1196.5c1.273.58 1.273 1.24 0 2-.963-.47-.963-1.14 0-2z" opacity=".059"/><path fill="#00ff61" d="M370.5 1198.5c1.333.67 1.333.67 0 0z" opacity=".008"/><path fill="#003200" d="M368.5 1199.5c1.333.67 1.333.67 0 0z" opacity=".012"/><path fill="#009700" d="M368.5 1200.5c-.667.67-.667.67 0 0z" opacity=".02"/><path fill="#d35519" d="M624.5 1197.5a18.702 18.702 0 0 1-3 7h-1c.579-2.83 1.912-5.16 4-7z" opacity=".071"/><path fill="#394400" d="M829.5 1199.5c1.025.4 1.192 1.06.5 2a2.424 2.424 0 0 1-.5-2z" opacity=".024"/><path fill="#003" d="M370.5 1202.5c-.667-1.33-.667-1.33 0 0z" opacity=".008"/><path fill="#704022" d="M837.5 1198.5c-1.623 2.99-3.957 5.32-7 7 1-3.67 3.333-6 7-7z" opacity=".353"/><path fill="#254c06" d="M828.5 1205.5c0 .67-.333 1-1 1a4.939 4.939 0 0 0-.5-3c-.654 1.2-1.154 1.2-1.5 0 .825-.89 1.825-1.22 3-1v3z" opacity=".051"/><path fill="#478812" d="M620.5 1204.5h1c-1.581 1.64-2.247 3.64-2 6-.992.17-1.658-.16-2-1 1.333-.33 1.333-.67 0-1 .238-1.9 1.238-3.24 3-4z" opacity=".035"/><path fill="#4e8c00" d="M818.5 1209.5c.876-.13 1.543.2 2 1-2.308 1.37-2.975 1.04-2-1z" opacity=".024"/><path fill="#a62d00" d="M619.5 1210.5c2.501.01 2.668.68.5 2a2.424 2.424 0 0 1-.5-2z" opacity=".02"/><path fill="#c6434f" d="M828.5 1205.5h2c-2.382 4.38-5.716 7.72-10 10a81.516 81.516 0 0 1 7-9c.667 0 1-.33 1-1z" opacity=".125"/><path fill="#181b27" d="M816.5 1213.5c1.025.4 1.192 1.06.5 2a2.424 2.424 0 0 1-.5-2z" opacity=".008"/><path fill="#00e300" d="M799.5 1215.5c1.837.14 2.17.81 1 2-.798-.46-1.131-1.12-1-2z" opacity=".012"/><path fill="#ff7a02" d="M808.5 1215.5c2.475.25 2.475.91 0 2-.963-.47-.963-1.14 0-2z" opacity=".004"/><path fill="#ba5923" d="M373.5 1199.5c.438-.07.772.1 1 .5a313.821 313.821 0 0 0-10 21.5 81.941 81.941 0 0 1 6-19 10.26 10.26 0 0 1 3-3z" opacity=".153"/><path fill="#cb652c" d="M612.5 1213.5c-.065 2.2-.732 4.2-2 6-1.365 1.31-2.698 1.31-4 0l6-6z" opacity=".008"/><path fill="#41a900" d="M355.5 1215.5c1.086.12 1.753.79 2 2-.333.67-.667 1.33-1 2-.929-1.19-1.262-2.52-1-4z" opacity=".004"/><path fill="#ff4203" d="M810.5 1217.5c1.273.58 1.273 1.24 0 2-.963-.47-.963-1.14 0-2z" opacity=".035"/><path fill="#78b019" d="M802.5 1218.5c2.064.26 3.397 1.43 4 3.5-2.672.48-4.005-.68-4-3.5z" opacity=".012"/><path fill="#9d801e" d="M364.5 1221.5c.09 2.65-.576 4.99-2 7-.51-2.89.156-5.22 2-7z" opacity=".114"/><path fill="#007e00" d="M605.5 1224.5c1.276.89 1.276 1.89 0 3-.587-.73-.587-1.73 0-3z" opacity=".051"/><path fill="#051601" d="M801.5 1227.5c.397-1.03 1.063-1.19 2-.5-.594.46-1.261.63-2 .5z" opacity=".02"/><path fill="#009700" d="M602.5 1228.5c1.333.67 1.333.67 0 0z" opacity=".004"/><path fill="#15cf19" d="M361.5 1229.5c0 .67-.333 1-1 1-.961 1.76-1.295 3.76-1 6h-1c-1.484-3.44-1.318-6.78.5-10 .377 1.44 1.21 2.44 2.5 3z" opacity=".082"/><path fill="#af382f" d="M599.5 1226.5c-2.096 1.93-3.596 4.27-4.5 7-.383-.56-.883-.89-1.5-1 1-3 3-5 6-6z" opacity=".098"/><path fill="#00ff61" d="M784.5 1232.5c1.333.67 1.333.67 0 0z" opacity=".008"/><path fill="#c34541" d="M362.5 1228.5c.206 3-.46 5.66-2 8v-6c.667 0 1-.33 1-1 0-.67.333-1 1-1z" opacity=".078"/><path fill="#009700" d="M791.5 1233.5c1.333.67 1.333.67 0 0z" opacity=".004"/><path fill="#926129" d="M592.5 1233.5c.111.62.444 1.12 1 1.5a41.724 41.724 0 0 1-5 1.5c.762-1.76 2.096-2.76 4-3z" opacity=".075"/><path fill="#3b7301" d="M795.5 1236.5c-3.87.87-4.037-.13-.5-3 .483.95.649 1.95.5 3z" opacity=".024"/><path fill="#ac6017" d="M814.5 1221.5c-2 4-5 7-9 9-1.333 3.33-3.667 5.67-7 7 .614-1.78 1.78-3.12 3.5-4a8.78 8.78 0 0 0 1.5-5c1.808.01 3.475-.49 5-1.5 1.413-2.53 3.413-4.36 6-5.5z" opacity=".267"/><path fill="#b25727" d="M795.5 1236.5c.891.61 1.891.94 3 1-.58 2.25-1.913 3.92-4 5v-2c.734-1.21 1.067-2.54 1-4z" opacity=".125"/><path fill="#5b40ab" d="M794.5 1240.5v2h-2c0-1.33.667-2 2-2z" opacity=".027"/><path fill="#039006" d="M787.5 1240.5c.876-.13 1.543.2 2 1-3.75 2.8-4.416 2.47-2-1z" opacity=".022"/><path fill="#ef4928" d="M358.5 1236.5h2c-.146 3.89-.813 7.55-2 11v-11z" opacity=".078"/><path fill="#009700" d="M588.5 1243.5c1.333.67 1.333.67 0 0z" opacity=".004"/><path fill="#03bf1e" d="M584.5 1246.5c.751-1.07 1.751-1.24 3-.5-.852 1.73-1.852 1.9-3 .5z" opacity=".035"/><path fill="#00ff61" d="M768.5 1247.5c1.273.58 1.273 1.24 0 2-.963-.47-.963-1.14 0-2z" opacity=".008"/><path fill="#45af04" d="M358.5 1247.5v4c-.667.33-1.333.67-2 1a18.44 18.44 0 0 1 .5-6c.383.56.883.89 1.5 1z" opacity=".059"/><path fill="#00ff61" d="M351.5 1249.5c1.073.75 1.24 1.75.5 3a4.939 4.939 0 0 1-.5-3z" opacity=".008"/><path fill="#aa411a" d="M578.5 1246.5c-2.555 4.46-6.221 7.8-11 10 3.063-4.07 6.729-7.4 11-10z" opacity=".11"/><path fill="#ab6818" d="M792.5 1242.5h2c-3.063 4.07-6.729 7.4-11 10 1.739-2.91 4.072-5.41 7-7.5-.333-.33-.667-.67-1-1 1.237-.23 2.237-.73 3-1.5z" opacity=".192"/><path fill="#0a0" d="M777.5 1250.5c2.157.55 1.99 1.55-.5 3-.47-1.08-.303-2.08.5-3z" opacity=".02"/><path fill="#003f00" d="M574.5 1253.5c1.333.67 1.333.67 0 0z" opacity=".078"/><path fill="#000700" d="M574.5 1254.5c-.667.67-.667.67 0 0z" opacity=".035"/><path fill="#80740f" d="M783.5 1253.5c-.762 1.76-2.096 2.76-4 3a4.939 4.939 0 0 1 .5-3c.986.67 2.153.67 3.5 0z" opacity=".212"/><path fill="#50baff" d="M571.5 1256.5c.789.28 1.456.78 2 1.5-3.826 2.14-4.493 1.64-2-1.5z" opacity=".051"/><path fill="#01f81b" d="M770.5 1256.5c1.837.14 2.17.81 1 2-.798-.46-1.131-1.12-1-2z" opacity=".016"/><path fill="#a27d29" d="m779.5 1257.5-6 6c-.086-1 .248-1.83 1-2.5-.667-.33-1.333-.67-2-1 2.56-.38 4.894-1.22 7-2.5z" opacity=".063"/><path fill="#00ff61" d="M752.5 1264.5c1.333.67 1.333.67 0 0z" opacity=".008"/><path fill="#01f01e" d="M762.5 1268.5c-3.457-.17-3.79-1.17-1-3 .886.82 1.219 1.82 1 3z" opacity=".027"/><path fill="#9a7d05" d="M773.5 1263.5a25.772 25.772 0 0 1-6 6c1.045-3.05 3.045-5.05 6-6z" opacity=".173"/><path fill="#00fc00" d="M762.5 1268.5c1.333.67 1.333.67 0 0z" opacity=".012"/><path fill="#a84e1b" d="M566.5 1257.5c-.229 1.93-1.062 3.6-2.5 5a127.496 127.496 0 0 0-20 18 4.939 4.939 0 0 0-.5 3h-3a4.939 4.939 0 0 1-.5 3c-1.557-.71-2.723-.04-3.5 2a205.55 205.55 0 0 1 2 3c-1.517-.01-2.684-.68-3.5-2-.671.75-1.504 1.09-2.5 1a397.77 397.77 0 0 1 34-33z" opacity=".118"/><path fill="#05f825" d="M754.5 1272.5c1.837.14 2.17.81 1 2-.798-.46-1.131-1.12-1-2z" opacity=".012"/><path fill="#56af00" d="M553.5 1277.5c-.252-3.43 1.081-4.43 4-3-.783 1.79-2.116 2.79-4 3z" opacity=".024"/><path fill="#8e5315" d="M762.5 1274.5c-1.676 3.04-4.009 5.38-7 7 1.649-1.67 2.982-3.67 4-6a5.56 5.56 0 0 1 3-1z" opacity=".427"/><path fill="#03b020" d="M553.5 1277.5c-.283.79-.783 1.46-1.5 2-.528-1.32-.028-1.98 1.5-2z" opacity=".004"/><path fill="#e83427" d="M358.5 1251.5a174.113 174.113 0 0 0 2 48v1a179.792 179.792 0 0 1-3.5-13c-.5-11.66-.667-23.33-.5-35 .667-.33 1.333-.67 2-1z" opacity=".094"/><path fill="#009700" d="M355.5 1292.5c-.131-.74.036-1.41.5-2 .692.94.525 1.6-.5 2z" opacity=".004"/><path fill="#c99700" d="M538.5 1291.5c.739-.13 1.406.04 2 .5-.937.69-1.603.53-2-.5z" opacity=".004"/><path fill="#009700" d="M355.5 1292.5c.131.74-.036 1.41-.5 2-.692-.94-.525-1.6.5-2z" opacity=".004"/><path fill="#003" d="M533.5 1292.5c1.333.67 1.333.67 0 0z" opacity=".008"/><path fill="#b26024" d="M755.5 1281.5c-4.915 5.49-7.915 11.83-9 19-.165-3.35.002-6.68.5-10a25.956 25.956 0 0 0 5-7c.816-1.32 1.983-1.99 3.5-2z" opacity=".122"/><path fill="#00df00" d="M355.5 1295.5c1.098 1.1 1.265 2.43.5 4a8.43 8.43 0 0 1-.5-4z" opacity=".024"/><path fill="#a83824" d="M526.5 1296.5c-.086 1 .248 1.83 1 2.5-.594.46-1.261.63-2 .5-.333-1.33-.667-1.33-1 0-4.65 3.98-8.316 7.64-11 11-1.122 1.13-2.456 1.8-4 2a96.458 96.458 0 0 1 17-16z" opacity=".008"/><path fill="#000065" d="M524.5 1299.5h1v1c-.333-.33-.667-.67-1-1z" opacity=".02"/><path fill="#000060" d="M525.5 1300.5c1.333.67 1.333.67 0 0z" opacity=".067"/><path fill="#003200" d="M743.5 1303.5c1.025.4 1.192 1.06.5 2a2.424 2.424 0 0 1-.5-2z" opacity=".016"/><path fill="#726810" d="M360.5 1299.5c1.268 2.41 1.935 5.07 2 8-.617.11-1.117.44-1.5 1-1.212-2.72-1.379-5.38-.5-8v-1z" opacity=".09"/><path fill="#c99700" d="M525.5 1305.5c1.837.14 2.17.81 1 2-.798-.46-1.131-1.12-1-2z" opacity=".004"/><path fill="#7d312f" d="M746.5 1301.5c1.24 5.79 1.907 11.46 2 17-.667-.33-1.333-.67-2-1-.792-2.22-1.126-4.22-1-6-.046-3.35.288-6.68 1-10z" opacity=".439"/><path fill="#00ff61" d="M353.5 1308.5c.789.28 1.456.78 2 1.5-1.316.53-1.983.03-2-1.5z" opacity=".008"/><path fill="#00e700" d="M521.5 1309.5c1.837.14 2.17.81 1 2-.798-.46-1.131-1.12-1-2z" opacity=".012"/><path fill="#003" d="M745.5 1311.5c-.667.67-.667.67 0 0z" opacity=".031"/><path fill="#12c725" d="M358.5 1311.5c.978.31 1.645.98 2 2-.85 4.87-1.85 5.03-3 .5.243-.9.577-1.74 1-2.5z" opacity=".027"/><path fill="#d0973b" d="M509.5 1312.5c.012 2.64-1.321 3.98-4 4 1-1.67 2.333-3 4-4z" opacity=".02"/><path fill="#00ff61" d="M351.5 1315.5c1.098 1.1 1.265 2.43.5 4a8.43 8.43 0 0 1-.5-4z" opacity=".008"/><path fill="#3cb003" d="M746.5 1317.5c.667.33 1.333.67 2 1v3c-1.604-.79-2.271-2.12-2-4z" opacity=".004"/><path fill="#42cd1a" d="M506.5 1318.5c.978.31 1.645.98 2 2-4.332 4.03-4.998 3.37-2-2z" opacity=".012"/><path fill="#009700" d="M743.5 1319.5c1.333.67 1.333.67 0 0z" opacity=".004"/><path fill="#8b5206" d="M362.5 1308.5c2.898 6.02 5.231 12.35 7 19-.997.03-1.664-.47-2-1.5a72.349 72.349 0 0 1-5-17.5z" opacity=".192"/><path fill="#a84f3e" d="M505.5 1316.5c.333.67.667 1.33 1 2-3.378 1.38-5.711 3.71-7 7h-4a48.742 48.742 0 0 1 10-9z" opacity=".071"/><path fill="#59caff" d="M495.5 1325.5h3c0 .67.333 1 1 1-1.55-.01-3.217.33-5 1 .333-.67.667-1.33 1-2z" opacity=".024"/><path fill="#001a00" d="M499.5 1325.5c.667 0 1 .33 1 1-.333-.33-.667-.67-1-1z" opacity=".106"/><path fill="#009700" d="M735.5 1325.5c1.333.67 1.333.67 0 0z" opacity=".004"/><path fill="#957b14" d="M748.5 1319.5c2.328 5.3 5.661 9.97 10 14-2.403.11-4.236-.89-5.5-3-2.547-2.47-4.047-5.47-4.5-9v-2z" opacity=".082"/><path fill="#c99700" d="M500.5 1326.5c1.333.67 1.333.67 0 0z" opacity=".004"/><path fill="#946d11" d="M494.5 1327.5c-1.017 2.41-2.684 4.08-5 5 .667-2.67 2.333-4.33 5-5z" opacity=".078"/><path fill="#92b2ff" d="M493.5 1330.5c1.333.67 1.333.67 0 0z" opacity=".075"/><path fill="#003200" d="M752.5 1333.5c1.333.67 1.333.67 0 0z" opacity=".071"/><path fill="#996414" d="M488.5 1332.5c-.58 2.25-1.913 3.92-4 5 .58-2.25 1.913-3.92 4-5z" opacity=".059"/><path fill="#005d00" d="M752.5 1334.5c-.667.67-.667.67 0 0z" opacity=".035"/><path fill="#5d4126" d="M483.5 1337.5c-.108 2.01.558 3.68 2 5-4.18-2.58-6.847-1.25-8 4h-2c-.543-.06-.876-.39-1-1 1.924-1.51 3.091-3.51 3.5-6 1-1.33 2-1.33 3 0 .708-.88 1.542-1.55 2.5-2z" opacity=".894"/><path fill="#009700" d="M756.5 1338.5c1.333.67 1.333.67 0 0z" opacity=".004"/><path fill="#b061fd" d="M490.5 1340.5c.397-1.03 1.063-1.19 2-.5-.594.46-1.261.63-2 .5z" opacity=".012"/><path fill="#d44e1d" d="M759.5 1334.5c3.999 2.26 8.333 3.76 13 4.5 27.836.17 55.503.67 83 1.5-29.708-.02-59.208-.02-88.5 0-2.844-1.66-5.344-3.66-7.5-6z" opacity=".094"/><path fill="#08fd4d" d="M368.5 1342.5c-1.025-.4-1.192-1.06-.5-2 .464.59.631 1.26.5 2z" opacity=".008"/><path fill="#00bf00" d="M486.5 1341.5c1.333.67 1.333.67 0 0z" opacity=".024"/><path fill="#009700" d="M368.5 1342.5c1.333.67 1.333.67 0 0z" opacity=".012"/><path fill="#00b400" d="M485.5 1342.5h1c-.185.67-.519.67-1 0z" opacity=".071"/><path fill="#0e0" d="M751.5 1341.5c1.837.14 2.17.81 1 2-.798-.46-1.131-1.12-1-2z" opacity=".024"/><path fill="#aa5e1e" d="M898.5 1341.5c1.864-1.29 3.864-1.29 6 0 .627.92.961 1.92 1 3-1.91-1.78-4.244-2.78-7-3z" opacity=".239"/><path fill="#b9551c" d="M375.5 1340.5c2.45 2.13 4.117 4.8 5 8-.891-.61-1.891-.94-3-1a29.484 29.484 0 0 0-2-7z" opacity=".106"/><path fill="#04bc34" d="M477.5 1346.5c1.528.02 2.028.68 1.5 2-.717-.54-1.217-1.21-1.5-2z" opacity=".008"/><path fill="#41ad1f" d="M377.5 1347.5c1.109.06 2.109.39 3 1v3c-1.762-.76-2.762-2.1-3-4z" opacity=".02"/><path fill="#c55b65" d="M473.5 1347.5c-.801 3.07-2.801 4.74-6 5 2.307-1.48 4.14-3.48 5.5-6 .399.23.565.56.5 1z" opacity=".059"/><path fill="#7d6317" d="M905.5 1344.5c2.424 2.51 4.09 5.51 5 9h-3l-2-9z" opacity=".045"/><path fill="#a4622d" d="M467.5 1352.5c1.333 4 0 5.33-4 4 1-1.67 2.333-3 4-4z" opacity=".071"/><path fill="#c99700" d="M478.5 1353.5c1.333.67 1.333.67 0 0z" opacity=".004"/><path fill="#f25a16" d="M475.5 1355.5c1.837.14 2.17.81 1 2-.798-.46-1.131-1.12-1-2z" opacity=".012"/><path fill="#81c816" d="M910.5 1353.5c1.547 1.27 2.547 2.93 3 5v1a32.254 32.254 0 0 1-4-4.5c.556-.38.889-.88 1-1.5z" opacity=".02"/><path fill="#c99700" d="M471.5 1359.5c.397-1.03 1.063-1.19 2-.5-.594.46-1.261.63-2 .5z" opacity=".004"/><path fill="#ac6229" d="M380.5 1348.5c4.321 5.96 8.655 11.96 13 18-1.512-1.82-3.512-2.82-6-3 .111-.62.444-1.12 1-1.5a163.852 163.852 0 0 0-8-10.5v-3z" opacity=".071"/><path fill="#163213" d="M913.5 1360.5c.131.74-.036 1.41-.5 2-.692-.94-.525-1.6.5-2z" opacity=".075"/><path fill="#4f2f00" d="M461.5 1365.5c.017-1.53.684-2.03 2-1.5-.544.72-1.211 1.22-2 1.5z" opacity=".02"/><path fill="#8c5a1e" d="M913.5 1358.5c2.664 1.98 4.331 4.65 5 8-1.29-.56-2.123-1.56-2.5-3-.718.95-1.551 1.12-2.5.5 1.291-1.29 1.291-2.46 0-3.5v-2z" opacity=".012"/><path fill="#1b6003" d="M387.5 1363.5c-.247 2.48-.913 2.48-2 0 .47-.96 1.137-.96 2 0z" opacity=".059"/><path fill="green" d="M461.5 1365.5c-.333 1-1 1.67-2 2 0-1.33.667-2 2-2z" opacity=".004"/><path fill="#d92e24" d="M396.5 1372.5c-.233-1.56-.9-2.9-2-4-.065-.44.101-.77.5-1a12.156 12.156 0 0 1 3.5 4.5c-.594.46-1.261.63-2 .5z" opacity=".008"/><path fill="#52a200" d="M459.5 1367.5c-.467 2.8-2.133 4.13-5 4 .489-2.82 2.156-4.16 5-4z" opacity=".071"/><path fill="#89580c" d="M918.5 1366.5c2.949 1.87 4.949 4.54 6 8-2.961-1.91-4.961-4.58-6-8z" opacity=".169"/><path fill="#a099ff" d="M915.5 1369.5c1.837.14 2.17.81 1 2-.798-.46-1.131-1.12-1-2z" opacity=".004"/><path fill="#0c2317" d="M393.5 1373.5c-1.025-.4-1.192-1.06-.5-2 .464.59.631 1.26.5 2z" opacity=".02"/><path fill="#13c40f" d="M393.5 1373.5h2c.667 0 1 .33 1 1-1.447 1.39-2.447 1.05-3-1z" opacity=".024"/><path fill="#585d00" d="M454.5 1371.5c-.198 3.42-1.532 4.26-4 2.5 1.484-.66 2.817-1.5 4-2.5z" opacity=".02"/><path fill="#00bf00" d="M919.5 1374.5c1.333.67 1.333.67 0 0z" opacity=".024"/><path fill="#cb5353" d="M449.5 1370.5c-.487.97-.987 1.97-1.5 3a138.574 138.574 0 0 0-10.5 9c3-5 7-9 12-12z" opacity=".02"/><path fill="#004600" d="M446.5 1376.5c1.333.67 1.333.67 0 0z" opacity=".051"/><path fill="#005400" d="M446.5 1377.5c.131.74-.036 1.41-.5 2-.692-.94-.525-1.6.5-2z" opacity=".071"/><path fill="#c54132" d="M924.5 1374.5a26.128 26.128 0 0 1 5 7c-4.585-.55-6.252-2.88-5-7z" opacity=".075"/><path fill="#006f00" d="M401.5 1379.5c-.667.67-.667.67 0 0z" opacity=".024"/><path fill="#003200" d="M400.5 1380.5c-.667.67-.667.67 0 0zm43 0c1.333.67 1.333.67 0 0z" opacity=".012"/><path fill="#009700" d="M923.5 1381.5c-.667-1.33-.667-1.33 0 0z" opacity=".004"/><path fill="#003" d="M442.5 1382.5c-.667-1.33-.667-1.33 0 0z" opacity=".012"/><path fill="#003200" d="M923.5 1381.5c1.333.67 1.333.67 0 0z" opacity=".012"/><path fill="#009700" d="M925.5 1381.5c1.333.67 1.333.67 0 0z" opacity=".004"/><path fill="#eb4011" d="M1616.5 1372.5c.17 6.01 0 12.01-.5 18-.28.92-.78 1.58-1.5 2 .32-6.85.98-13.51 2-20z" opacity=".082"/><path fill="#b65f1f" d="M399.5 1373.5c5.555 5.57 11.888 9.9 19 13-6.063-.49-10.896-3.15-14.5-8-.671.75-1.504 1.09-2.5 1 .111-.62.444-1.12 1-1.5-1.641-1.13-2.641-2.63-3-4.5z" opacity=".11"/><path fill="#003200" d="M920.5 1382.5c1.333.67 1.333.67 0 0z" opacity=".012"/><path fill="#a95516" d="M434.5 1384.5c-1.011 2.73-2.678 3.4-5 2 1.28-1.43 2.947-2.1 5-2z" opacity=".188"/><path fill="#009700" d="M408.5 1386.5c-.667-1.33-.667-1.33 0 0z" opacity=".004"/><path fill="#aa6619" d="M418.5 1386.5h11c-1.703 1.64-3.87 2.64-6.5 3-1.008-.48-2.175-.65-3.5-.5-.752-.67-1.086-1.5-1-2.5z" opacity=".09"/><path fill="#26c908" d="M442.5 1382.5c.543.06.876.39 1 1-1.24 3.25-3.573 4.91-7 5a25.772 25.772 0 0 1 6-6z" opacity=".035"/><path fill="#003200" d="M928.5 1386.5c1.333.67 1.333.67 0 0z" opacity=".02"/><path fill="#009700" d="M399.5 1388.5c.397-1.03 1.063-1.19 2-.5-.594.46-1.261.63-2 .5z" opacity=".004"/><path fill="#00bc00" d="M408.5 1386.5c2.483.23 2.983.9 1.5 2-1.03-.34-1.53-1-1.5-2z" opacity=".004"/><path fill="#236327" d="M436.5 1388.5c-.397 1.03-1.063 1.19-2 .5.594-.46 1.261-.63 2-.5z" opacity=".012"/><path fill="#03b020" d="M414.5 1389.5c2.501.01 2.668.68.5 2a2.424 2.424 0 0 1-.5-2z" opacity=".008"/><path fill="#003" d="M430.5 1389.5c1.333.67 1.333.67 0 0z" opacity=".012"/><path fill="#0a0" d="M442.5 1389.5c1.837.14 2.17.81 1 2-.798-.46-1.131-1.12-1-2z" opacity=".004"/><path fill="#ae4617" d="M1614.5 1394.5c.08 5.33-.92 10.33-3 15 .38-5.24 1.38-10.24 3-15z" opacity=".165"/><path fill="#b15f25" d="M932.5 1385.5c14.218 16.89 29.552 32.89 46 48a69.686 69.686 0 0 0-8-4.5 815.556 815.556 0 0 0-23-24.5 45.933 45.933 0 0 0-11-9.5c2.401-.81 2.234-1.64-.5-2.5a19.494 19.494 0 0 1-3.5-7z" opacity=".224"/><path fill="#003" d="M947.5 1404.5c-.667.67-.667.67 0 0zm-1 1c-.667.67-.667.67 0 0z" opacity=".008"/><path fill="#c2491f" d="M1611.5 1409.5c.11.62.44 1.12 1 1.5-2 3.16-3 6.33-3 9.5-1.06-3.87-.39-7.54 2-11z" opacity=".145"/><path fill="#003200" d="M1614.5 1413.5c1.03.4 1.19 1.06.5 2-.46-.59-.63-1.26-.5-2z" opacity=".012"/><path fill="#05bf2e" d="M947.5 1416.5c3.81 1.25 3.81 2.25 0 3v-3z" opacity=".004"/><path fill="#009700" d="M958.5 1421.5c2.501.01 2.668.68.5 2a2.424 2.424 0 0 1-.5-2z" opacity=".007"/><path fill="#ab7c00" d="M1607.5 1423.5c.16 2.03 0 4.03-.5 6-.42 1.26-1.25 1.92-2.5 2 .23-3.04 1.23-5.71 3-8z" opacity=".157"/><path fill="#00b200" d="M1611.5 1429.5c1.83.64 2.17 1.64 1 3-.89-.82-1.22-1.82-1-3z" opacity=".004"/><path fill="#009700" d="M965.5 1433.5c1.025.4 1.192 1.06.5 2a2.424 2.424 0 0 1-.5-2z" opacity=".004"/><path fill="#6a97ff" d="M976.5 1434.5c1.333.67 1.333.67 0 0z" opacity=".02"/><path fill="#cf3700" d="M1604.5 1431.5c.07 1.46-.27 2.79-1 4h-1c.16-1.65.83-2.99 2-4z" opacity=".133"/><path fill="#76d4ff" d="M978.5 1433.5a6.575 6.575 0 0 1 3 3c-2 0-3-1-3-3z" opacity=".051"/><path fill="#51ac11" d="M1602.5 1435.5h1c.9.71 1.24 1.71 1 3-.89.61-1.89.94-3 1-.07-1.46.27-2.79 1-4z" opacity=".02"/><path fill="#960032" d="M1605.5 1437.5c1.33.67 1.33.67 0 0z" opacity=".008"/><path fill="#0ac100" d="M1614.5 1435.5c1.28 1.21 1.28 2.54 0 4-1.13-1.31-1.13-2.64 0-4z" opacity=".071"/><path fill="#009700" d="M976.5 1438.5c1.333.67 1.333.67 0 0z" opacity=".004"/><path fill="#004300" d="M1604.5 1438.5h1c-.19.67-.52.67-1 0z" opacity=".059"/><path fill="#b16c1e" d="M981.5 1436.5a61.344 61.344 0 0 1 12 9c-1.808.01-3.475-.49-5-1.5-2.928-2.09-5.261-4.59-7-7.5z" opacity=".11"/><path fill="#c99700" d="M979.5 1442.5c1.073.75 1.24 1.75.5 3a4.939 4.939 0 0 1-.5-3z" opacity=".004"/><path fill="#e45023" d="M1600.5 1441.5c.21 1.68-.45 2.68-2 3-.07-1.53.59-2.53 2-3z" opacity=".02"/><path fill="#ac491b" d="M993.5 1445.5c2.254.62 3.921 1.96 5 4-2.704-.17-4.371-1.5-5-4z" opacity=".024"/><path fill="#00b900" d="M991.5 1449.5c.789.28 1.456.78 2 1.5-1.316.53-1.983.03-2-1.5z" opacity=".035"/><path fill="#d22120" d="M998.5 1449.5c1.53-.07 2.53.59 3 2-1.527.07-2.527-.59-3-2z" opacity=".129"/><path fill="#003" d="M993.5 1452.5c1.333.67 1.333.67 0 0z" opacity=".008"/><path fill="#b95c28" d="M1597.5 1446.5c-1.45 5.82-4.79 10.82-10 15a178.47 178.47 0 0 1 10-15z" opacity=".051"/><path fill="#04e44c" d="M975.5 1454.5c.577-1.27 1.243-1.27 2 0-.47.96-1.137.96-2 0z" opacity=".008"/><path fill="#009700" d="M995.5 1454.5c1.333.67 1.333.67 0 0z" opacity=".004"/><path fill="#ae5512" d="M1001.5 1451.5c4.61 2.62 8.95 5.62 13 9h-1c-1.84-1.25-3.67-1.25-5.5 0-.22-1.44-.72-2.77-1.5-4-2.36-1.02-4.02-2.69-5-5z" opacity=".212"/><path fill="#6db310" d="M1013.5 1460.5h1c1.33.67 2.33 1.67 3 3-1.05-.15-2.05.02-3 .5-1.33 2.09-3.17 3.59-5.5 4.5l-1.5-1.5c2.33-1.67 4.67-3.33 7-5-.56-.38-.89-.88-1-1.5z" opacity=".024"/><path fill="#ee6a85" d="M1587.5 1461.5c-.23 2.56-1.56 4.23-4 5 .58-2.25 1.91-3.92 4-5z" opacity=".008"/><path fill="#6c9f12" d="M1592.5 1461.5c1.11 1.45 1.28 3.11.5 5-1.72.27-3.55.77-5.5 1.5 1.94-2.09 3.6-4.25 5-6.5z" opacity=".024"/><path fill="#39d01d" d="M1021.5 1465.5c.99-.17 1.66.16 2 1v1c-1.33 0-2-.67-2-2z" opacity=".047"/><path fill="#003" d="M1020.5 1470.5c.4-1.03 1.06-1.19 2-.5-.59.46-1.26.63-2 .5z" opacity=".008"/><path fill="#a799ff" d="M1594.5 1469.5c1.18-.22 2.18.11 3 1-1.55 1.3-2.55.96-3-1z" opacity=".008"/><path fill="#8f6207" d="M1023.5 1467.5v-1c6.17 2.58 11.84 5.91 17 10-2.06-.02-4.06-.35-6-1-3.1-3.39-6.76-6.06-11-8z" opacity=".202"/><path fill="#003" d="M1581.5 1472.5c1.33.67 1.33.67 0 0z" opacity=".012"/><path fill="#003" d="M1031.5 1474.5c1.33.67 1.33.67 0 0z" opacity=".047"/><path fill="#a06b1e" d="M1583.5 1466.5a40.364 40.364 0 0 1-13 13c4-4.67 8.33-9 13-13z" opacity=".082"/><path fill="#009700" d="M1034.5 1475.5c-.67.67-.67.67 0 0z" opacity=".004"/><path fill="#1ce723" d="M1577.5 1479.5c1.68.68 2.34 2.02 2 4h-3c-.07-1.46.27-2.79 1-4z" opacity=".024"/><path fill="#04e049" d="M1039.5 1482.5c4.92-.05 4.92.95 0 3-2.55-1.05-2.55-2.05 0-3z" opacity=".012"/><path fill="#007a00" d="M1049.5 1484.5c.34-.84 1.01-1.17 2-1-.34.84-1.01 1.17-2 1z" opacity=".035"/><path fill="#0a4e08" d="M1049.5 1484.5c-.4 1.03-1.06 1.19-2 .5.59-.46 1.26-.63 2-.5z" opacity=".024"/><path fill="#236327" d="M1567.5 1486.5c.4-1.03 1.06-1.19 2-.5-.59.46-1.26.63-2 .5z" opacity=".004"/><path fill="#00a000" d="M1052.5 1487.5c.75-1.07 1.75-1.24 3-.5-.95.48-1.95.65-3 .5z" opacity=".035"/><path fill="#af7110" d="M1040.5 1476.5c8.54 3.62 16.87 7.62 25 12-5.05-.75-9.72-2.42-14-5a136.9 136.9 0 0 0-11-7z" opacity=".094"/><path fill="#bd4928" d="M1569.5 1480.5a58.321 58.321 0 0 1-10 8h-2a73.06 73.06 0 0 1 12-8z" opacity=".059"/><path fill="#55b001" d="M1065.5 1489.5c2.51.43 4.84 1.09 7 2v1c-3.06.36-5.73-.48-8-2.5.23-.4.56-.57 1-.5z" opacity=".075"/><path fill="#a69414" d="M1557.5 1488.5h2c-2.5 3.14-5.84 4.81-10 5 2.59-1.66 5.25-3.32 8-5z" opacity=".09"/><path fill="#a8581e" d="M1072.5 1491.5c4.63 1.1 8.97 2.76 13 5-.65.3-1.32.64-2 1-3.49-2.27-7.16-3.93-11-5v-1z" opacity=".082"/><path fill="#04f327" d="M1071.5 1495.5c2.48.23 2.98.9 1.5 2-1.03-.34-1.53-1-1.5-2z" opacity=".027"/><path fill="#984d13" d="M1540.5 1497.5c-1.71 2.04-4.04 3.04-7 3 2.01-1.57 4.34-2.57 7-3z" opacity=".075"/><path fill="#009700" d="M1549.5 1498.5c1.84.14 2.17.81 1 2-.8-.46-1.13-1.12-1-2z" opacity=".004"/><path fill="#bd4022" d="M1103.5 1502.5c-3.87-.85-7.71-1.85-11.5-3-.38.56-.88.89-1.5 1-.67 0-1-.33-1-1 .44.07.77-.1 1-.5-1.24-.23-2.24-.73-3-1.5 5.47.38 10.81 2.05 16 5z" opacity=".012"/><path fill="#003200" d="M1542.5 1499.5c1.33.67 1.33.67 0 0z" opacity=".02"/><path fill="#009700" d="M1081.5 1500.5c1.33.67 1.33.67 0 0z" opacity=".004"/><path fill="#da5234" d="M1533.5 1500.5c-1.14 1.71-2.8 2.38-5 2 1.28-1.43 2.95-2.1 5-2z" opacity=".149"/><path fill="#007900" d="M1539.5 1501.5c.4-1.03 1.06-1.19 2-.5-.59.46-1.26.63-2 .5z" opacity=".024"/><path fill="#14ad02" d="M1089.5 1499.5c0 .67.33 1 1 1-.7 1.84-2.04 2.34-4 1.5.87-1.04 1.87-1.88 3-2.5z" opacity=".012"/><path fill="#003" d="M1534.5 1501.5c1.33.67 1.33.67 0 0z" opacity=".008"/><path fill="#00c100" d="M1072.5 1501.5c3.87 1.65 3.54 2.15-1 1.5.56-.38.89-.88 1-1.5z" opacity=".024"/><path fill="#ab7401" d="M1103.5 1502.5c3-.21 5.66.46 8 2-3.2.54-5.86-.13-8-2z" opacity=".037"/><path fill="#d56111" d="M1527.5 1502.5c-.96 2.65-2.62 3.32-5 2 1.43-1.04 3.1-1.7 5-2z" opacity=".035"/><path fill="#997e13" d="M1111.5 1504.5c4.62.24 8.95 1.24 13 3-3.35.17-6.68 0-10-.5-1.44-.38-2.44-1.21-3-2.5z" opacity=".145"/><path fill="#960032" d="M1521.5 1505.5c.74-.13 1.41.04 2 .5-.94.69-1.6.53-2-.5z" opacity=".008"/><path fill="#d94a18" d="M1521.5 1504.5v1c-2.52.38-4.86 1.21-7 2.5-2.65.5-5.31.66-8 .5 4.76-1.83 9.76-3.16 15-4z" opacity=".122"/><path fill="#003200" d="M1526.5 1506.5c1.33.67 1.33.67 0 0z" opacity=".012"/><path fill="#022a00" d="M1519.5 1509.5c.4-1.03 1.06-1.19 2-.5-.59.46-1.26.63-2 .5z" opacity=".02"/><path fill="#795516" d="M1503.5 1508.5c-1.78 1.84-4.11 2.51-7 2h-4c3.45-1.19 7.11-1.85 11-2z" opacity=".09"/><path fill="#fe8c04" d="M1119.5 1511.5c.4-1.03 1.06-1.19 2-.5-.59.46-1.26.63-2 .5z" opacity=".024"/><path fill="#009700" d="M1522.5 1510.5c1.33.67 1.33.67 0 0z" opacity=".004"/><path fill="#926c00" d="M1125.5 1507.5c8.86.92 17.53 2.26 26 4v1c-5.02-.25-10.02-.75-15-1.5-3.81-.92-7.48-2.09-11-3.5z" opacity=".024"/><path fill="#952b03" d="M1491.5 1510.5c-1.33.67-2.67 1.33-4 2-112.06.03-224.06.03-336 0v-1c113.34.31 226.68-.02 340-1z" opacity=".153"/><path fill="#5db200" d="M1491.5 1510.5h5c-2.62 1.77-5.62 2.43-9 2 1.33-.67 2.67-1.33 4-2z" opacity=".024"/><path fill="#07a300" d="M1503.5 1512.5c1.45-1.11 3.11-1.28 5-.5-1.64 1.52-3.31 1.69-5 .5z" opacity=".004"/><path fill="#5abbff" d="M1118.5 1516.5c1.63-.66 3.47-.99 5.5-1 2.37-.1 4.54.4 6.5 1.5-4.09.76-8.09.6-12-.5z" opacity=".004"/></svg>