<?xml version="1.0" encoding="UTF-8"?>
<svg xmlns="http://www.w3.org/2000/svg" viewBox="0 0 446.8 406.64">
  <g>
    <path id="body" fill="#000" d="m293.39,130.82c-1.15-62.3-72.64-102.09-109.6-97.07-6.56.89-11.46,6.47-11.47,13.09l-.13,78.31c-58.28,19.23-109.44,80.05-111.54,153.35-14.21,16.05-10.64,50.3,9.66,60.06,2.4,1.15,5.26.69,7.18-1.14l48.42-46.19c4.21-4.02,5.03-10.51,1.79-15.34-6.95-10.34-21.36-15.85-36.46-14.57,8.55-17.17,24.08-26.8,40.23-28.82,24.73-3.08,52.36,14.34,56.23,45.13l-28.89,29.69c-7.05,7.25-1.91,19.42,8.21,19.42h31.41s27.81,46.57,77.36,46.57h78.95c21.54,0,39.11-17.22,39.57-38.75.41-19.31.65-42.37.11-60.59-1.47-49.22-38.18-121.69-101.02-143.15Z"/>
    <path id="border" fill="#fff" d="m354.74,376.31h-78.95c-46.25,0-73.69-38.38-79.02-46.57h-29.75c-5.91,0-11.01-3.38-13.31-8.83-2.3-5.44-1.17-11.45,2.95-15.69l27.87-28.64c-4.4-28.94-30.53-43.87-52.69-41.11-14.83,1.86-27.48,10.02-35.39,22.67,14.28.25,27.15,6.27,33.74,16.07,4.05,6.03,3.12,14.1-2.21,19.18l-48.42,46.19c-2.81,2.68-7.05,3.35-10.55,1.67-9.5-4.57-16.4-14.39-18.93-26.96-2.74-13.61.24-27.96,7.61-36.95,1.23-35.11,13.41-68.84,35.28-97.62,20.18-26.57,47.19-46.65,76.23-56.74l.13-76.16c.01-8.07,6.06-14.97,14.07-16.06,21.84-2.96,53.35,8.9,76.63,28.85,22.36,19.17,35.19,43.61,36.3,69.04,36.13,13.03,59.67,40.64,73.12,61.7,16.73,26.19,27.19,57.41,27.97,83.51.46,15.34.42,35.77-.11,60.74-.49,22.99-19.58,41.69-42.57,41.69Zm-217.66-147.15c23.89,0,49.71,17.16,53.6,48.1l.18,1.43-29.9,30.72c-2.88,2.96-2.77,6.67-1.72,9.17,1.05,2.49,3.65,5.16,7.78,5.16h33.11l.87,1.46c.27.45,27.57,45.1,74.78,45.1h78.95c19.75,0,36.15-16.07,36.57-35.81.53-24.86.56-45.2.11-60.43-1.55-51.79-39.84-120.2-99-140.4l-1.99-.68-.04-2.1c-.45-24.44-12.62-48.13-34.27-66.69-22.08-18.93-51.65-30.22-71.92-27.46-5.05.69-8.87,5.04-8.87,10.13l-.14,80.47-2.06.68c-52.76,17.41-107.31,74.72-109.48,150.59l-.03,1.09-.72.81c-6.69,7.55-9.41,20.36-6.94,32.63,2.16,10.71,7.86,19,15.65,22.74,1.26.61,2.79.36,3.81-.61l48.42-46.19c3.21-3.06,3.78-7.9,1.37-11.5-6.22-9.26-19.46-14.47-33.72-13.25l-5.32.45,2.38-4.78c8.48-17.04,23.99-28.14,42.54-30.46,1.97-.25,3.97-.37,5.98-.37Z"/>
  </g>
  <path id="eye" fill="#fff" d="m342.63,319.92v-22.35c0-9.58,6.16-19.04,12.2-19.04s14.71,5.36,13.91,23.15c-.8,17.79-13,18.25-14.48,18.25h-11.63Z"/>
  <path id="belly" fill="#fff" d="m280.9,349.64v-72.38c0-2.16-.16-4.33-.48-6.47-13.94-93.83-119.46-109.37-167.97-57.62,41.43-12.48,83.42,8.6,95.12,49.34,1.37,4.78,2.03,9.73,2.1,14.7.23,16.54,5.93,71.46,71.23,72.42Z"/>
</svg>