<svg xmlns="http://www.w3.org/2000/svg" width="80" height="80"><path d="M 66.667 20 C 66.667 20 59.025 14.02 50 13.333 L 49.187 14.96 C 57.347 16.957 61.09 19.818 65 23.333 C 58.258 19.892 51.602 16.667 40 16.667 C 28.398 16.667 21.742 19.892 15 23.333 C 18.91 19.818 23.363 16.642 30.813 14.96 L 30 13.333 C 20.532 14.228 13.333 20 13.333 20 C 13.333 20 4.798 32.375 3.333 56.667 C 11.937 66.588 25 66.667 25 66.667 L 27.732 63.025 C 23.095 61.413 17.858 58.535 13.333 53.333 C 18.73 57.417 26.875 61.667 40 61.667 C 53.125 61.667 61.27 57.417 66.667 53.333 C 62.142 58.535 56.905 61.413 52.268 63.025 L 55 66.667 C 55 66.667 68.063 66.588 76.667 56.667 C 75.202 32.375 66.667 20 66.667 20 Z M 29.167 50 C 25.945 50 23.333 47.015 23.333 43.333 C 23.333 39.652 25.945 36.667 29.167 36.667 C 32.388 36.667 35 39.652 35 43.333 C 35 47.015 32.388 50 29.167 50 Z M 50.833 50 C 47.612 50 45 47.015 45 43.333 C 45 39.652 47.612 36.667 50.833 36.667 C 54.055 36.667 56.667 39.652 56.667 43.333 C 56.667 47.015 54.055 50 50.833 50 Z" fill="rgb(102,162,158)"></path></svg>