<svg xmlns="http://www.w3.org/2000/svg" width="256" height="256" viewBox="0 0 256 256">
<path fill="#66a29f" font-family="none" font-size="none" font-weight="none" text-anchor="none" d="M160.908 48C204.584 48 208 51.416 208 95.092v65.812C208 204.58 204.584 208 160.908 208H95.092C51.416 208 48 204.58 48 160.908V95.092C48 51.416 51.416 48 95.092 48zM105.14 157.64c16.368 0 29.64-13.272 29.64-29.64 0-16.368-13.272-29.64-29.64-29.64-16.368 0-29.64 13.272-29.64 29.64 0 16.368 13.272 29.64 29.64 29.64zm47.272-1.432c8.104 0 14.668-12.628 14.668-28.208 0-15.58-6.568-28.208-14.668-28.208S137.744 112.42 137.744 128c0 15.576 6.568 28.208 14.668 28.208zm22.788-3.012c2.816 0 5.1-11.28 5.1-25.196 0-13.916-2.284-25.196-5.1-25.196-2.82 0-5.104 11.28-5.104 25.196 0 13.916 2.288 25.196 5.104 25.196z"/>
</svg>